<?xml version="1.0" encoding="UTF-8"?>
<svg width="2001px" height="488px" viewBox="0 0 2001 488" version="1.1" xmlns="http://www.w3.org/2000/svg" xmlns:xlink="http://www.w3.org/1999/xlink">
    <!-- Generator: Sketch 59.1 (86144) - https://sketch.com -->
    <title>logo</title>
    <desc>Created with Sketch.</desc>
    <g id="Page-1" stroke="none" stroke-width="1" fill="none" fill-rule="evenodd">
        <g id="logo" transform="translate(0.000000, -86.000000)">
            <path d="M350.687358,498.219607 L413.720132,522 L393.795618,478.852205 L393.790382,478.844348 C471.174252,446.795816 524,382.675181 524,308.811918 C524,202.894885 415.406032,117 281.502618,117 C147.593968,117 39,202.894885 39,308.811918 C39,372.455898 78.2181242,428.871476 138.580684,463.769465 L138.580684,184.488651 L350.687358,184.488651 L350.687358,498.219607 Z M281.50393,86 C436.94267,86 563,185.644445 563,308.518129 C563,385.889541 513.004701,454.039468 437.175876,493.911917 L471.617083,574 L338.757457,527.599158 L241.447424,560.340674 L241.447424,269.274418 L319.521844,221.988104 L171.029517,221.988104 L171.029517,513.227262 C70.4834149,479.272807 0,400.392424 0,308.518129 C0,185.644445 126.05995,86 281.50393,86 L281.50393,86 Z" id="Fill-29" fill="#729442"></path>
            <g id="Group" transform="translate(666.000000, 0.000000)" fill="#000000" fill-rule="nonzero">
                <path d="M168.56,446.56 C168.56,435.64 166.88,425.56 163.52,416.32 C160.16,407.08 155.4,398.96 149.24,392.24 C143.08,385.8 135.52,380.76 127.12,376.84 C118.44,373.2 108.92,371.24 98.84,371.24 C89.88,371.24 80.64,372.92 71.4,375.72 C61.88,378.8 53.48,382.72 45.64,387.76 C45.36,387.2 45.36,386.36 45.36,385.8 C45.36,385.24 45.08,384.96 44.8,384.4 C44.24,383.28 43.12,382.16 42,381.04 L41.15776,380.53824 C40.0288,379.8752 38.864,379.248 37.52,378.8 L32.48,377.12 L31.36896,376.95424 C29.9712,376.7392 28.896,376.56 28,376.56 C26.88,376.56 25.48,377.12 24.08,378.24 L22.824375,379.08 C21.5775,379.92 20.37,380.76 19.32,381.6 C17.64,383.28 16.52,384.68 15.68,386.08 C14.56,387.76 14,388.88 14,389.72 C14,391.68 14.56,393.36 15.12,394.48 C15.3766667,396.02 15.8686111,397.324722 16.380162,398.394167 L16.52,398.68 C17.92,401.48 19.04,404.28 19.6,406.52 L20.44,413.24 L19.88,414.36 C19.32,415.2 19.04,416.04 18.76,416.88 C18.2,417.72 18.2,418.56 18.2,419.4 C18.2,421.08 18.48,422.48 19.32,424.16 C19.88,425.84 21,427.24 22.12,428.36 L22.377442,432.533109 C22.8456805,440.249231 23.2830769,448.304615 23.52,456.36 C23.52,466.16 23.8,476.8 23.8,488.56 L23.8,504.24 C23.8,509.28 23.52,514.04 23.52,518.8 L22.68,538.68 C22.12,545.12 22.12,549.6 22.12,552.4 C22.12,554.08 22.4,555.48 23.52,556.6 C24.64,558 25.76,559.12 27.44,559.96 C28.84,561.08 30.24,561.92 31.92,562.48 C33.6,563.04 35,563.32 36.12,563.32 L36.6379426,563.317961 C37.5912426,563.306746 38.5753846,563.233846 39.76,562.76 C41.16,562.48 42.56,561.92 44.24,561.36 C45.36,560.8 46.48,559.68 47.6,558.56 C48.72,557.72 49.28,556.6 49.84,555.2 C55.44,558.133333 61.5479365,560.304762 67.921935,561.95616 L70.196341,562.5356 C76.0471344,563.991867 80.9103448,564.72 84.56,564.72 C97.16,564.72 108.64,562.48 119.28,558 C129.14087,553.617391 137.929905,546.823157 145.122841,537.355164 L145.6,536.72 C152.731429,527.394286 158.250729,515.650379 162.157901,500.961871 L162.4,500.04 C166.32,485.2 168.56,467.28 168.56,446.56 Z M139.16,451.32 C139.16,467.84 137.48,481.84 134.68,493.6 C131.6,505.36 127.68,514.88 122.64,522.16 C117.736216,529.515676 112.302294,535.015866 106.080327,538.402664 L105.56,538.68 C98.84,542.32 92.12,544 85.12,544 C80.64,544 77,543.44 73.64,542.04 C70.28,540.92 67.2,539.52 64.4,537.84 L60.48,535.32 C59.36,534.76 57.96,533.92 56.84,533.08 L55.959597,532.646933 C54.0872889,531.740978 52.4533333,531.045333 51.24,530.56 C51.24,526.64 51.52,522.72 51.52,518.8 L51.52,493.04 C51.52,489.2 51.3142857,485.154286 51.2555102,481.25551 L51.2340166,478.564343 C51.1953546,475.962025 50.9817934,472.531237 50.9615419,468.456083 L50.96,437.32 L50.4,420.8 L52.08,419.12 C52.36,418.56 52.92,418 53.48,417.44 C54.6,415.76 55.72,414.64 56.56,414.08 C58.24,412.4 59.92,411 61.6,409.32 C63,407.92 64.4,406.52 66.08,405.12 L70,402.04 C71.12,401.2 72.52,400.36 74.2,399.24 C77,397.84 80.08,396.72 83.44,395.6 L84.3031713,395.460324 C87.5525,394.950556 91.7233333,394.48 96.6,394.48 C102.76,394.48 108.36,396.16 113.68,398.96 C118.72,402.32 123.2,406.52 127.12,411.56 C130.76,416.88 133.84,423.04 136.08,429.76 C138.04,436.76 139.16,444.04 139.16,451.32 Z M303.24,556.6 C303.24,556.04 302.4,553.8 301,550.44 C299.88,548.2 299.04,545.68 298.48,542.88 C297.92,540.36 297.36,537.28 297.08,533.92 C296.52,530.56 296.24,526.36 296.24,521.88 C296.03,518.52 295.9775,514.6875 295.964375,510.3825 L295.961683,505.506837 C295.969256,504.730579 296.010909,503.272727 296.24,501.44 L296.24,493.6 L296.8,485.2 C296.8,482.68 297.08,480.44 297.36,478.76 L297.472664,477.543597 C297.719644,474.943289 297.994667,472.581333 298.48,470.64 C298.48,468.4 298.76,465.6 299.32,462.52 C299.6,460.28 299.88,458.32 300.16,456.36 L300.47808,454.49632 C300.6192,453.6496 300.72,452.944 300.72,452.44 C300.72,451.04 299.88,449.36 298.2,447.68 C296.52,446 294.56,444.32 292.6,443.2 C290.92,442.36 288.96,441.52 286.72,440.96 L286.148724,440.820265 C284.196295,440.353422 282.751304,440.12 282.24,440.12 C281.12,440.12 279.44,440.4 277.76,440.96 C275.8,441.52 274.4,442.36 273.28,443.76 C272.16,445.44 271.32,447.12 271.04,449.36 C270.76,451.88 270.76,455.8 270.76,461.12 L270.76,476.52 C270.76,480.72 270.48,485.2 270.48,490.24 C270.48,495.28 270.2,500.32 270.2,505.36 C269.94,509.52 269.438571,513.68 268.471531,517.84 L268.24,518.8 C267.12,523.56 265.72,527.76 263.76,531.68 C261.52,535.6 259,538.96 255.64,541.2 C252.28,544 248.08,545.12 243.6,545.12 C236.88,545.12 232.12,542.32 229.04,536.16 C225.75814,530.143256 224.346176,522.523743 224.282279,512.779628 L224.282755,511.527143 C224.292857,510.615714 224.34,508.84 224.56,506.2 L224.56,485.76 C224.56,482.68 224.84,480.44 224.84,479.32 L224.843366,478.320331 C224.858512,476.695868 224.941818,474.509091 225.4,471.76 L226.52,461.96 L227.36,454.96 L227.52576,454.11776 C227.7408,452.9888 227.92,451.824 227.92,450.48 C227.92,448.8 227.36,447.4 226.8,446 L225.96,444.954375 C225.12,443.9175 224.28,442.92 223.44,442.08 C221.76,441.24 220.08,440.4 218.4,439.84 L217.56,439.562593 C216.16,439.108889 214.76,438.72 213.36,438.72 C210.56,438.72 208.04,439.56 205.52,440.68 C202.72,442.08 199.64,443.76 196.56,445.72 C196.56,447.96 196.84,450.2 197.4,452.16 L198.24,458.6 C198.24,460.84 198.52,463.08 198.52,465.32 L198.514017,465.92957 C198.475355,468.044931 198.261793,470.988763 198.241542,474.576961 L198.24,487.72 L197.68,499.48 L197.68,506.48 C197.68,513.76 198.24,520.76 199.36,527.48 C200.2,534.2 202.16,540.36 205.52,545.68 C208.88,551 213.36,555.2 219.52,558.28 C225.12,561.64 232.96,563.04 243.04,563.04 C247.8,563.04 252.84,561.64 258.16,558.84 C263.2,556.04 267.4,552.68 270.76,548.2 C271.88,553.8 274.12,558.56 277.2,562.48 C280.28,566.4 284.2,568.36 289.24,568.36 C293.16,568.36 296.24,567.24 299.04,565.28 C300.44,564.16 301.56,563.04 302.4,561.36 C302.96,559.68 303.24,558.28 303.24,556.6 Z M426.44,401.2 C426.44,396.72 425.32,392.52 423.64,388.88 C421.96,385.52 419.72,382.44 416.92,379.92 C414.12,377.68 410.76,375.72 407.12,374.32 C403.2,373.2 399.56,372.64 395.64,372.64 C387.8,372.64 381.36,375.16 376.04,379.64 C370.44,384.4 366.24,390.56 362.88,397.84 C359.52,405.12 357,413.52 355.32,422.48 C353.64,431.44 353.08,440.4 353.08,448.8 L353.08,451.32 C352.8,452.44 352.8,453.84 352.8,455.24 C350.84,455.24 348.88,455.52 346.92,455.52 L340.76,455.52 C338.669333,455.781333 337.066489,456.042667 335.723816,456.07635 L335.44,456.08 C333.76,456.08 332.92,456.36 332.36,456.36 C329,457.2 326.76,458.88 325.08,461.12 C323.4,463.36 322.84,466.16 322.84,469.24 C322.84,473.44 324.24,476.52 327.6,478.76 C329,479.88 330.68,480.72 332.36,481.28 C334.04,482.12 335.72,482.4 337.96,482.4 L343.56,482.4 L348.04,481.84 L352.24,481.84 L351.68,501.44 C351.4,508.16 351.4,514.32 351.4,519.92 L350.84,534.76 L350.84,544 C350.84,546.52 351.0668,549.04 351.5204,551.56 L351.68,552.4 C352.24,555.48 353.08,558.28 354.76,560.8 C355.88,563.6 357.56,565.84 359.8,567.52 C361.76,569.2 364.28,570.32 367.64,570.32 C368.76,570.32 370.16,570.04 372.12,569.76 C373.8,569.2 375.48,568.36 377.16,567.52 C378.56,566.4 379.96,565.56 381.08,564.44 C382.2,563.32 383.04,562.2 383.32,560.52 C382.76,558 382.2,554.64 381.64,550.16 C380.823333,545.804444 380.535988,539.596265 380.520654,531.278154 L380.52,522.72 L379.96,510.12 L379.96,495.28 C379.68,490.24 379.68,485.2 379.68,480.44 L389.76,480.44 C394.24,480.44 397.88,480.16 400.68,479.6 L401.954465,479.339499 C404.262012,478.854438 406.430769,478.307692 408.8,477.36 C409.36,477.08 410.2,475.96 411.6,474 C412.72,472.32 413.56,470.08 413.56,467.28 L413.56,465.6 C413.28,465.04 413.28,464.2 413.28,463.64 C412.16,460.28 410.2,457.76 407.12,456.08 C403.76,454.96 400.12,454.12 395.92,454.12 L390.04,454.12 C386.12,454.12 382.76,454.4 379.68,454.4 C379.96,446.28 380.52,438.72 381.64,431.72 C382.48,425 383.6,418.84 385,413.8 C386.4,408.76 388.08,404.84 389.76,401.76 C391.44,398.96 393.12,397.56 394.8,397.56 C396.76,397.56 398.44,398.68 399.84,400.64 C400.96,402.88 401.8,405.4 401.8,407.92 C402.92,409.32 404.32,410.44 406.28,411.56 C407.96,412.68 409.36,413.24 411.04,413.24 C412.72,413.24 414.4,412.96 416.36,412.4 C418.04,411.84 419.44,410.72 421.12,409.6 C422.52,408.48 423.64,407.36 424.76,405.68 C425.88,404.56 426.44,402.88 426.44,401.2 Z M535.64,401.2 C535.64,396.72 534.52,392.52 532.84,388.88 C531.16,385.52 528.92,382.44 526.12,379.92 C523.32,377.68 519.96,375.72 516.32,374.32 C512.4,373.2 508.76,372.64 504.84,372.64 C497,372.64 490.56,375.16 485.24,379.64 C479.64,384.4 475.44,390.56 472.08,397.84 C468.72,405.12 466.2,413.52 464.52,422.48 C462.84,431.44 462.28,440.4 462.28,448.8 L462.28,451.32 C462,452.44 462,453.84 462,455.24 C460.04,455.24 458.08,455.52 456.12,455.52 L449.96,455.52 C447.869333,455.781333 446.266489,456.042667 444.923816,456.07635 L444.64,456.08 C442.96,456.08 442.12,456.36 441.56,456.36 C438.2,457.2 435.96,458.88 434.28,461.12 C432.6,463.36 432.04,466.16 432.04,469.24 C432.04,473.44 433.44,476.52 436.8,478.76 C438.2,479.88 439.88,480.72 441.56,481.28 C443.24,482.12 444.92,482.4 447.16,482.4 L452.76,482.4 L457.24,481.84 L461.44,481.84 L460.88,501.44 C460.6,508.16 460.6,514.32 460.6,519.92 L460.04,534.76 L460.04,544 C460.04,546.52 460.2668,549.04 460.7204,551.56 L460.88,552.4 C461.44,555.48 462.28,558.28 463.96,560.8 C465.08,563.6 466.76,565.84 469,567.52 C470.96,569.2 473.48,570.32 476.84,570.32 C477.96,570.32 479.36,570.04 481.32,569.76 C483,569.2 484.68,568.36 486.36,567.52 C487.76,566.4 489.16,565.56 490.28,564.44 C491.4,563.32 492.24,562.2 492.52,560.52 C491.96,558 491.4,554.64 490.84,550.16 C490.023333,545.804444 489.735988,539.596265 489.720654,531.278154 L489.72,522.72 L489.16,510.12 L489.16,495.28 C488.88,490.24 488.88,485.2 488.88,480.44 L498.96,480.44 C503.44,480.44 507.08,480.16 509.88,479.6 L511.154465,479.339499 C513.462012,478.854438 515.630769,478.307692 518,477.36 C518.56,477.08 519.4,475.96 520.8,474 C521.92,472.32 522.76,470.08 522.76,467.28 L522.76,465.6 C522.48,465.04 522.48,464.2 522.48,463.64 C521.36,460.28 519.4,457.76 516.32,456.08 C512.96,454.96 509.32,454.12 505.12,454.12 L499.24,454.12 C495.32,454.12 491.96,454.4 488.88,454.4 C489.16,446.28 489.72,438.72 490.84,431.72 C491.68,425 492.8,418.84 494.2,413.8 C495.6,408.76 497.28,404.84 498.96,401.76 C500.64,398.96 502.32,397.56 504,397.56 C505.96,397.56 507.64,398.68 509.04,400.64 C510.16,402.88 511,405.4 511,407.92 C512.12,409.32 513.52,410.44 515.48,411.56 C517.16,412.68 518.56,413.24 520.24,413.24 C521.92,413.24 523.6,412.96 525.56,412.4 C527.24,411.84 528.64,410.72 530.32,409.6 C531.72,408.48 532.84,407.36 533.96,405.68 C535.08,404.56 535.64,402.88 535.64,401.2 Z M596.4,401.2 C596.4,395.88 594.16,391.4 589.68,387.48 C587.16,385.8 584.64,384.68 582.12,383.56 C579.32,382.72 576.52,382.16 573.44,382.16 C568.68,382.16 564.48,383.84 560.56,386.64 C556.92,389.72 555.24,393.36 555.24,397.84 C555.24,403.44 557.76,408.2 563.08,411.84 C567.56,415.2 572.6,416.88 578.76,416.88 C583.8,416.88 588,415.76 591.36,412.96 C594.72,410.16 596.4,406.24 596.4,401.2 Z M590.24,453.84 C590.24,451.88 589.12,449.92 587.44,447.96 C585.48,446.28 583.52,444.88 581.56,443.76 C578.2,442.08 574.56,440.96 571.2,440.96 C569.66,440.96 567.884722,441.195278 566.089838,441.665833 L565.6,441.8 C563.36,442.36 561.68,443.48 560.56,444.88 C559.16,446.56 558.32,449.08 558.04,452.16 C557.48,455.52 557.2,459.72 557.2,465.04 L556.64,521.6 L556.64,545.96 C556.64,548.2 556.92,550.72 558.04,552.96 C558.88,555.2 560.28,557.44 562.52,559.12 L562.670671,559.265152 C563.311168,559.862784 564.6816,560.9344 567,562.48 C569.52,564.16 571.76,565 574,565 C575.96,565 578.2,564.44 581,563.04 C583.8,561.92 585.48,559.96 586.6,557.16 C588.28,553.52 589.4,549.88 589.4,546.52 C589.12,546.24 589.12,545.96 589.12,545.4 C589.12,545.12 588.84,544.56 588.84,544 C588.56,543.44 588.56,542.88 588.56,542.32 C588.56,541.76 588.28,541.2 588.28,540.36 C587.44,537.84 586.88,535.04 586.88,531.96 L586.6,522.16 L586.601296,501.416667 C586.607778,498.072222 586.646667,494.533333 586.88,490.8 C586.88,486.6 587.16,483.52 587.16,481.28 L587.16,477.92 L587.72,473.16 L588.28,468.12 C588.28,466.44 588.56,465.04 588.84,463.92 C589.12,461.68 589.4,459.72 589.96,457.76 C589.96,455.8 590.24,454.4 590.24,453.84 Z M750.68,542.04 C750.68,539.8 749.28,537.84 746.76,536.16 C743.96,534.76 741.44,533.92 738.64,533.92 C738.08,533.92 736.96,534.2 735.56,534.48 C733.88,535.04 732.48,535.88 730.8,536.72 C725.76,540.08 720.16,542.88 713.72,545.12 C707,547.92 700.28,549.04 693.56,549.04 C682.36,549.04 674.24,545.68 668.64,538.96 C663.04,532.24 659.96,524.12 659.4,514.04 C663.04,516 667.24,517.68 672,518.8 C676.48,520.2 681.8,520.76 687.96,520.76 C695.8,520.76 703.36,519.92 711.2,517.68 C718.48,515.44 725.2,512.64 731.08,508.72 C736.68,505.36 741.44,501.16 745.08,496.4 C748.44,491.92 750.4,486.88 750.4,481.56 C750.4,473.72 747.88,467 743.12,461.12 C738.08,455.52 731.64,451.04 724.08,447.12 C717.64,444.32 710.92,442.08 703.92,440.4 C696.64,439 689.36,438.16 682.36,438.16 C674.8,438.16 667.8,440.4 661.36,444.88 C654.64,449.64 648.76,455.52 643.72,462.8 C638.68,470.08 634.48,477.92 631.68,486.88 C628.6,495.84 627.2,504.52 627.2,513.2 C627.2,519.6512 628.232192,526.1024 630.296576,532.305874 L630.56,533.08 C632.8,539.8 636.16,545.68 641.2,550.72 C646.24,555.76 652.68,559.96 660.52,563.04 C668.36,566.12 677.88,567.8 689.36,567.8 C695.52,567.8 702.24,567.24 709.52,566.4 C716.52,565.28 722.96,563.6 729.12,561.36 C735.28,559.4 740.32,556.88 744.52,553.52 C748.44,550.16 750.68,546.52 750.68,542.04 Z M723.8,482.4 C723.8,485.2 722.68,487.72 720.72,489.96 C718.48,492.48 715.96,494.72 712.6,496.4 C709.24,498.08 705.32,499.48 701.12,500.6 C696.64,501.72 692.44,502.28 687.96,502.28 C680.4,502.28 674.52,501.16 670.6,498.64 C666.4,496.4 663.6,493.32 662.2,489.96 C664.44,481.56 668.36,474.56 673.4,468.96 C678.44,463.36 684.04,460.28 690.76,460.28 C694.4,460.28 698.32,460.84 702.24,461.68 C706.16,462.8 709.52,464.2 712.88,465.88 C715.96,467.84 718.48,470.08 720.72,472.88 C722.68,475.68 723.8,478.76 723.8,482.4 Z M818.72,552.12 C818.72,551.56 818.44,550.72 818.44,549.6 C818.16,548.76 817.6,547.64 817.04,545.96 C815.134444,541.332222 813.493549,534.58716 812.374624,525.982124 L812.28,525.24 C811.192941,516.543529 810.633426,506.000657 810.601453,493.611384 L810.6,427.52 C810.6,423.6 810.88,419.68 811.44,416.32 C811.72,413.24 812.28,410.44 812.84,407.92 C813.12,405.4 813.68,402.88 814.8,400.36 L817.32,393.08 L817.647307,391.752314 C818.302314,389.048347 818.72,386.970909 818.72,385.52 C818.72,381.04 816.48,377.4 812.56,374.6 C808.08,371.8 803.6,370.12 799.12,370.12 C797.16,370.12 794.64,370.68 791.56,371.52 C788.48,372.64 785.12,374.6 781.48,376.84 C781.48,380.48 781.76,384.12 782.32,387.76 L782.454167,388.722338 C782.924722,392.185556 783.16,394.923333 783.16,396.72 L783.16,430.04 L782.6,458.04 L782.6,485.76 L782.544184,487.598571 C782.35449,494.261429 782.325306,500.06 782.320816,504.994286 L782.32,517.4 C782.32,533.084828 784.212996,544.983662 787.998989,552.830739 L788.2,553.24 C792.12,561.36 797.16,565.28 803.88,565.28 C807.8,565.28 811.16,564.16 814.24,561.64 C817.04,559.4 818.72,556.04 818.72,552.12 Z M976.36,386.08 C976.36,382.72 973,379.36 966.84,376.28 C964.6,375.16 962.36,374.32 960.4,373.76 C958.16,373.2 956.48,372.92 955.08,372.92 C952.84,372.92 950.88,373.48 949.76,374.32 C948.36,375.44 947.24,376.56 946.4,378.24 C945.56,379.64 945,381.6 944.72,383.84 C944.16,386.08 943.6,388.6 943.6,391.12 C943.04,393.64 943.04,396.16 943.04,398.4 C942.848421,400.124211 942.787922,401.58626 942.768818,402.696463 L942.754261,404.490123 C942.714368,406.46689 942.48,410.827234 942.48,418 L942.360816,421.600816 C942.125714,429.045714 941.92,437.96 941.92,448.52 C937.72,444.6 932.68,441.52 926.8,439.28 C920.64,437.04 913.92,435.64 906.64,435.64 C896.28,435.64 887.6,438.44 880.32,443.76 C873.260606,449.190303 867.780937,455.673756 863.370374,463.210358 L862.96,463.92 C858.2,472.04 854.84,480.72 852.88,489.68 C850.64,498.64 849.52,506.76 849.52,513.76 C849.52,521.6 850.64,528.6 853.16,535.04 C855.4,541.48 859.04,547.08 864.08,551.84 C868.56,556.6 874.72,560.24 882,563.04 C889,565.56 897.4,566.96 907.2,566.96 C913.64,566.96 919.52,565.56 925.12,563.04 C930.72,560.24 935.76,555.76 940.24,549.6 L940.454375,551.5425 C940.6775,553.5375 940.94,555.69 941.36,558 L941.494543,558.717696 C942.011392,561.386432 942.5472,563.1072 943.32,563.88 C947.24,568.64 951.72,571.16 956.48,571.16 C957.6,571.16 959.28,570.88 960.96,570.6 L966,568.92 C967.68,568.08 969.08,567.24 970.2,566.12 C971.32,565 971.88,563.88 971.88,562.2 L971.04,558 C970.512941,556.945882 970.23391,555.147682 969.969469,553.072274 L969.821632,551.876874 C969.577993,549.835433 969.36,547.524706 969.36,544.56 C969.153043,542.283478 969.099055,539.395085 969.084971,536.007884 L969.082877,529.710173 C969.093233,526.490737 969.14087,522.622609 969.36,518.24 L969.36,500.88 L969.92,482.4 L969.92,465.6 C969.92,460.56 970.2,456.08 970.48,452.16 L970.48,445.44 C970.48,441.646452 970.742227,436.279542 971.266681,429.339272 L973,406.52 L973.84,402.04 L974.96,395.6 L975.52,392.8 L975.521296,392.496667 C975.527778,391.952222 975.566667,391.213333 975.8,390.28 C975.8,389.44 976.08,388.6 976.08,387.76 C976.08,387.2 976.36,386.64 976.36,386.08 Z M940.52,493.04 C940.52,498.08 939.96,503.4 939.12,509.56 C938,515.72 936.32,521.6 933.8,527.2 C931,532.8 927.36,537.56 922.88,541.2 C918.4,545.12 912.52,547.08 905.24,547.08 C900.2,547.08 896,546.24 892.64,544 C889.28,542.32 886.48,539.8 884.8,536.72 C882.56,533.64 881.16,530.28 880.6,526.36 C879.76,522.72 879.48,519.08 879.48,515.16 C879.48,510.68 879.76,505.36 880.88,499.2 C882,493.04 883.68,486.88 886.48,481.28 C889,475.68 892.64,470.64 897.12,466.44 C901.32,462.52 906.92,460.28 913.64,460.28 C918.12,460.28 922.32,461.4 925.68,463.08 C929.04,465.04 931.84,467.56 934.08,470.36 C936.32,473.44 938,476.8 939.12,480.72 C939.96,484.92 940.52,489.12 940.52,493.04 Z" id="Duffield"></path>
                <path d="M169.12,276.28 L169.115157,275.747911 C169.080109,273.740373 168.860009,271.100574 168.624488,267.489249 L168.20608,261.0368 C168.0112,258.1136 167.776,254.888 167.44,251.36 C166.88,245.76 166.04,239.6 165.2,232.88 L164.17408,224.99968 C163.6432,220.9744 163.072,216.808 162.4,212.44 L159.6,193.12 C158.48,186.4 157.64,179.68 156.52,172.96 L152.32,152.8 C150.64,146.36 148.68,139.92 146.72,133.76 C145.6,130.68 143.92,127.32 142.24,123.68 C140.56,120.32 138.32,116.96 135.8,113.6 C133,110.8 129.92,108.28 126.56,106.04 C122.92,104.08 119,102.96 114.52,102.96 C107.8,102.96 101.64,105.48 95.48,110.24 C89.32,115.28 83.44,121.44 77.84,128.72 C72.24,136.56 66.92,144.96 62.16,154.48 C57.12,164 52.92,173.24 49,182.2 C45.08,191.44 41.72,199.84 38.92,207.68 L36.8806073,213.605982 C35.0420571,218.9824 33.592,223.392 32.76,226.72 C30.8,226.16 29.12,225.88 27.44,225.32 C25.48,225.04 23.52,224.76 21.56,224.76 C16.52,224.76 13.16,226.16 11.2,228.68 C10.752,229.352 10.4832,229.8448 10.25024,230.30176 L7.84,235.12 C7.56,236.24 7.28,237.08 7,237.92 C7.84,240.72 8.68,242.96 9.8,244.64 C10.64,246.32 11.76,247.72 13.44,248.56 C14.56,249.68 16.24,250.24 18.48,250.52 C20.16,251.08 22.68,251.36 25.48,251.36 L24.97824,253.21024 C24.3152,255.6832 23.688,258.192 23.24,260.88 C22.4,264.24 21.56,267.6 21,270.96 C19.88,274.88 19.32,278.52 19.04,281.88 C18.48,285.52 18.2,288.88 18.2,291.96 C18.2,293.64 19.04,295.32 20.72,296.44 C22.12,297.56 24.08,298.68 26.32,299.8 C28.28,300.64 30.52,301.2 32.76,301.76 C35,302.32 36.68,302.6 38.36,302.6 C41.72,302.6 44.8,301.2 47.6,298.4 C50.4,295.6 51.8,292.8 51.8,289.72 C51.8,283.56 52.08,277.12 52.64,270.4 C53.2,263.68 54.04,257.24 55.16,251.08 C62.44,250.8 69.72,250.24 76.72,249.68 L79.8036959,249.419499 C85.4281657,248.934438 90.9138462,248.387692 96.6,247.44 C103.04,246.88 109.76,245.76 116.48,244.64 C122.92,243.52 129.92,242.12 137.2,240.44 L137.20224,241.17696 C137.2112,242.2432 137.256,243.632 137.48,245.2 C137.48,247.16 137.76,249.12 137.76,250.8 L138.32,256.68 L138.32,260.6 C138.32,262.28 138.04,263.96 137.76,265.36 L137.42624,266.36576 C136.9872,267.7008 136.584,269 136.36,270.12 L136.02624,271.12576 C135.5872,272.4608 135.184,273.76 134.96,274.88 C134.4,276.56 134.12,278.52 134.12,280.2 C134.12,282.44 134.68,284.12 136.08,285.8 C137.2,287.48 138.6,289.16 140.56,290.28 C142.24,291.68 144.48,292.8 146.72,293.36 C148.96,293.92 150.92,294.2 152.88,294.2 C158.48,294.2 162.68,292.24 165.2,288.32 C167.72,284.68 169.12,280.76 169.12,276.28 Z M134.4,219.16 C122.08,221.96 110.04,223.92 98,225.6 C85.68,227.56 73.36,228.68 61.04,228.68 C63,221.4 65.52,213.56 68.32,205.72 C71.12,197.88 74.2,190.32 77.56,182.48 C80.92,174.92 84.56,167.36 88.76,160.08 C92.68,153.08 97.16,146.36 102.2,139.92 C104.72,136.84 107.24,134.32 109.76,132.08 C112,129.84 113.68,128.72 115.36,128.72 C115.64,128.72 115.92,129.28 116.48,130.12 C116.76,131.24 117.04,131.8 117.04,131.8 C118.44,135.72 119.56,139.36 120.68,142.72 L121.70592,146.86848 C122.2368,148.992 122.808,151.176 123.48,153.36 L126,165.12 L127.68,175.76 L128.239336,178.477203 C129.448356,184.426311 130.629333,190.768 131.6,197.32 L131.915547,200.23375 C132.654375,206.97125 133.42,213.28 134.4,219.16 Z M313.32,265.36 C313.32,262 311.64,258.92 308.84,255.84 C307.16,254.16 305.48,253.04 303.8,252.2 L302.188571,251.733061 C300.902857,251.365714 299.76,251.08 298.76,251.08 C294.28,251.08 290.36,253.88 287,259.48 C283.92,264.52 279.44,268.72 273.56,272.36 C267.4,276.28 260.4,277.96 252.28,277.96 C244.44,277.96 238.28,276 234.08,271.8 C229.6,267.88 227.36,260.04 227.36,248.84 C227.36,243.8 227.92,238.2 229.04,231.48 C230.16,225.04 231.84,218.88 234.64,212.72 C237.16,207.12 240.52,202.08 244.72,197.88 C248.64,193.96 253.96,191.72 260.12,191.72 C264.6,191.72 268.52,192.84 272.16,194.52 C275.52,196.48 279.44,199.56 283.92,204.04 C285.88,206.28 288.4,208.24 291.2,209.92 C293.72,212.16 296.24,213 298.76,213 C302.68,213 305.76,211.6 308,208.8 C310.24,206 311.36,203.2 311.36,200.12 C311.36,197.32 310.24,194.8 308.56,192 C306.88,189.48 304.64,186.96 301.84,184.72 C294,178.56 286.16,174.64 278.88,172.4 C271.6,170.16 263.76,169.04 255.92,169.04 C246.621395,169.04 238.391303,171.444154 230.968808,176.252461 L230.44,176.6 C222.6,181.64 216.16,188.08 211.12,195.92 C205.52,203.76 201.6,212.44 198.8,221.68 C195.72,231.2 194.32,240.16 194.32,248.56 C194.32,256.96 195.72,263.96 198.8,269.84 C201.6,276 205.52,281.32 210.56,285.52 C215.6,289.72 222.04,292.8 229.32,294.76 C236.6,297 244.44,297.84 253.4,297.84 C261.24,297.84 269.08,297 277.2,295.32 C285.04,293.64 292.6,290 299.88,284.12 C304.64,280.2 308,276.56 310.24,273.76 C312.2,271.24 313.32,268.44 313.32,265.36 Z M454.72,265.36 C454.72,262 453.04,258.92 450.24,255.84 C448.56,254.16 446.88,253.04 445.2,252.2 L443.588571,251.733061 C442.302857,251.365714 441.16,251.08 440.16,251.08 C435.68,251.08 431.76,253.88 428.4,259.48 C425.32,264.52 420.84,268.72 414.96,272.36 C408.8,276.28 401.8,277.96 393.68,277.96 C385.84,277.96 379.68,276 375.48,271.8 C371,267.88 368.76,260.04 368.76,248.84 C368.76,243.8 369.32,238.2 370.44,231.48 C371.56,225.04 373.24,218.88 376.04,212.72 C378.56,207.12 381.92,202.08 386.12,197.88 C390.04,193.96 395.36,191.72 401.52,191.72 C406,191.72 409.92,192.84 413.56,194.52 C416.92,196.48 420.84,199.56 425.32,204.04 C427.28,206.28 429.8,208.24 432.6,209.92 C435.12,212.16 437.64,213 440.16,213 C444.08,213 447.16,211.6 449.4,208.8 C451.64,206 452.76,203.2 452.76,200.12 C452.76,197.32 451.64,194.8 449.96,192 C448.28,189.48 446.04,186.96 443.24,184.72 C435.4,178.56 427.56,174.64 420.28,172.4 C413,170.16 405.16,169.04 397.32,169.04 C388.021395,169.04 379.791303,171.444154 372.368808,176.252461 L371.84,176.6 C364,181.64 357.56,188.08 352.52,195.92 C346.92,203.76 343,212.44 340.2,221.68 C337.12,231.2 335.72,240.16 335.72,248.56 C335.72,256.96 337.12,263.96 340.2,269.84 C343,276 346.92,281.32 351.96,285.52 C357,289.72 363.44,292.8 370.72,294.76 C378,297 385.84,297.84 394.8,297.84 C402.64,297.84 410.48,297 418.6,295.32 C426.44,293.64 434,290 441.28,284.12 C446.04,280.2 449.4,276.56 451.64,273.76 C453.6,271.24 454.72,268.44 454.72,265.36 Z M600.6,274.04 C600.6,271.8 599.2,269.84 596.68,268.16 C593.88,266.76 591.36,265.92 588.56,265.92 C588,265.92 586.88,266.2 585.48,266.48 C583.8,267.04 582.4,267.88 580.72,268.72 C575.68,272.08 570.08,274.88 563.64,277.12 C556.92,279.92 550.2,281.04 543.48,281.04 C532.28,281.04 524.16,277.68 518.56,270.96 C512.96,264.24 509.88,256.12 509.32,246.04 C512.96,248 517.16,249.68 521.92,250.8 C526.4,252.2 531.72,252.76 537.88,252.76 C545.72,252.76 553.28,251.92 561.12,249.68 C568.4,247.44 575.12,244.64 581,240.72 C586.6,237.36 591.36,233.16 595,228.4 C598.36,223.92 600.32,218.88 600.32,213.56 C600.32,205.72 597.8,199 593.04,193.12 C588,187.52 581.56,183.04 574,179.12 C567.56,176.32 560.84,174.08 553.84,172.4 C546.56,171 539.28,170.16 532.28,170.16 C524.72,170.16 517.72,172.4 511.28,176.88 C504.56,181.64 498.68,187.52 493.64,194.8 C488.6,202.08 484.4,209.92 481.6,218.88 C478.52,227.84 477.12,236.52 477.12,245.2 C477.12,251.6512 478.152192,258.1024 480.216576,264.305874 L480.48,265.08 C482.72,271.8 486.08,277.68 491.12,282.72 C496.16,287.76 502.6,291.96 510.44,295.04 C518.28,298.12 527.8,299.8 539.28,299.8 C545.44,299.8 552.16,299.24 559.44,298.4 C566.44,297.28 572.88,295.6 579.04,293.36 C585.2,291.4 590.24,288.88 594.44,285.52 C598.36,282.16 600.6,278.52 600.6,274.04 Z M573.72,214.4 C573.72,217.2 572.6,219.72 570.64,221.96 C568.4,224.48 565.88,226.72 562.52,228.4 C559.16,230.08 555.24,231.48 551.04,232.6 C546.56,233.72 542.36,234.28 537.88,234.28 C530.32,234.28 524.44,233.16 520.52,230.64 C516.32,228.4 513.52,225.32 512.12,221.96 C514.36,213.56 518.28,206.56 523.32,200.96 C528.36,195.36 533.96,192.28 540.68,192.28 C544.32,192.28 548.24,192.84 552.16,193.68 C556.08,194.8 559.44,196.2 562.8,197.88 C565.88,199.84 568.4,202.08 570.64,204.88 C572.6,207.68 573.72,210.76 573.72,214.4 Z M741.16,268.16 C741.16,262.84 739.2,258.08 735.56,254.16 C731.64,250.24 727.16,246.6 721.84,243.8 C715.96,240.72 709.52,237.64 702.8,234.28 C695.8,231.2 689.08,228.12 682.64,224.76 L681.506896,224.231801 C674.806981,221.076565 669.892632,218.172632 667.24,215.52 C664.16,213.28 662.76,209.64 662.76,205.16 C662.76,204.04 663.04,202.92 663.88,201.24 C664.44,199.84 665.84,198.44 667.52,197.04 C669.2,195.64 671.44,194.24 674.24,193.12 C677.04,192.28 680.4,191.72 684.32,191.72 C688.8,191.72 692.72,192.56 696.08,193.96 L697.495962,194.73595 C699.934848,196.082105 701.945263,197.261053 703.36,198.44 C705.88,201.24 708.68,203.48 712.04,205.44 C715.12,207.68 718.76,209.36 723.24,209.92 C727.44,209.92 731.08,208.8 733.88,206.28 C736.4,204.04 737.8,201.24 737.8,198.16 C737.8,194.52 735.84,191.16 732.48,188.08 C728.84,185 725.2,182.2 721.56,179.96 C716.8,177.16 711.2,174.92 704.76,172.68 C698.32,170.72 691.88,169.6 685.72,169.6 C674.8,169.6 666.0094,170.930875 659.088679,173.333104 L658.56,173.52 C651.28,176.04 645.96,179.12 642.04,182.76 C637.84,186.68 635.04,190.88 633.64,195.36 C631.96,199.84 631.12,204.04 631.12,207.96 C631.12,212.44 631.96,216.36 633.64,219.72 C635.04,223.08 637,226.16 639.8,228.96 C642.32,231.76 645.4,234.28 648.76,236.24 C652.12,238.48 655.76,240.72 659.68,242.4 C662.2,243.8 664.72,244.92 667.52,246.04 C670.04,247.16 672.56,248.56 675.36,249.68 L686,254.44 C689.36,256.12 692.44,257.52 695.8,259.2 C700.28,261.72 703.64,263.96 705.6,265.64 L706.025189,266.144953 C707.466314,267.890057 708.4,269.401739 708.4,270.68 C708.4,272.36 707.56,274.04 705.88,275.16 C704.2,276.56 702.24,277.68 700,278.52 C697.48,279.64 694.68,280.2 691.88,280.48 C688.52,281.04 685.72,281.32 682.92,281.32 C680.4,281.32 677.88,281.04 675.08,280.48 L673.897143,280.238367 C671.565714,279.748571 669.44,279.2 667.52,278.24 L661.08,276 C659.4,275.16 658.28,274.32 657.72,273.48 C654.92,270.12 651.84,267.6 648.76,265.64 C645.4,263.96 641.48,262.84 636.44,262.84 C631.68,262.84 628.32,264.24 626.36,266.48 C624.12,269 623,271.52 623,273.76 C623,275.16 623.28,276.84 624.4,278.8 C625.24,280.76 626.08,282.16 627.2,283 C629.72,285.8 633.36,288.32 638.12,290.56 C642.6,292.8 647.36,294.48 652.68,296.16 C657.72,297.56 662.76,298.68 667.8,299.52 C672.84,300.36 677.6,300.92 681.52,300.92 C686.84,300.92 693,300.36 700,299.52 C706.72,298.4 713.16,296.72 719.32,293.92 C725.48,291.68 730.52,288.32 735,283.84 C738.92,279.92 741.16,274.6 741.16,268.16 Z M881.72,268.16 C881.72,262.84 879.76,258.08 876.12,254.16 C872.2,250.24 867.72,246.6 862.4,243.8 C856.52,240.72 850.08,237.64 843.36,234.28 C836.36,231.2 829.64,228.12 823.2,224.76 L822.066896,224.231801 C815.366981,221.076565 810.452632,218.172632 807.8,215.52 C804.72,213.28 803.32,209.64 803.32,205.16 C803.32,204.04 803.6,202.92 804.44,201.24 C805,199.84 806.4,198.44 808.08,197.04 C809.76,195.64 812,194.24 814.8,193.12 C817.6,192.28 820.96,191.72 824.88,191.72 C829.36,191.72 833.28,192.56 836.64,193.96 L838.055962,194.73595 C840.494848,196.082105 842.505263,197.261053 843.92,198.44 C846.44,201.24 849.24,203.48 852.6,205.44 C855.68,207.68 859.32,209.36 863.8,209.92 C868,209.92 871.64,208.8 874.44,206.28 C876.96,204.04 878.36,201.24 878.36,198.16 C878.36,194.52 876.4,191.16 873.04,188.08 C869.4,185 865.76,182.2 862.12,179.96 C857.36,177.16 851.76,174.92 845.32,172.68 C838.88,170.72 832.44,169.6 826.28,169.6 C815.36,169.6 806.5694,170.930875 799.648679,173.333104 L799.12,173.52 C791.84,176.04 786.52,179.12 782.6,182.76 C778.4,186.68 775.6,190.88 774.2,195.36 C772.52,199.84 771.68,204.04 771.68,207.96 C771.68,212.44 772.52,216.36 774.2,219.72 C775.6,223.08 777.56,226.16 780.36,228.96 C782.88,231.76 785.96,234.28 789.32,236.24 C792.68,238.48 796.32,240.72 800.24,242.4 C802.76,243.8 805.28,244.92 808.08,246.04 C810.6,247.16 813.12,248.56 815.92,249.68 L826.56,254.44 C829.92,256.12 833,257.52 836.36,259.2 C840.84,261.72 844.2,263.96 846.16,265.64 L846.585189,266.144953 C848.026314,267.890057 848.96,269.401739 848.96,270.68 C848.96,272.36 848.12,274.04 846.44,275.16 C844.76,276.56 842.8,277.68 840.56,278.52 C838.04,279.64 835.24,280.2 832.44,280.48 C829.08,281.04 826.28,281.32 823.48,281.32 C820.96,281.32 818.44,281.04 815.64,280.48 L814.457143,280.238367 C812.125714,279.748571 810,279.2 808.08,278.24 L801.64,276 C799.96,275.16 798.84,274.32 798.28,273.48 C795.48,270.12 792.4,267.6 789.32,265.64 C785.96,263.96 782.04,262.84 777,262.84 C772.24,262.84 768.88,264.24 766.92,266.48 C764.68,269 763.56,271.52 763.56,273.76 C763.56,275.16 763.84,276.84 764.96,278.8 C765.8,280.76 766.64,282.16 767.76,283 C770.28,285.8 773.92,288.32 778.68,290.56 C783.16,292.8 787.92,294.48 793.24,296.16 C798.28,297.56 803.32,298.68 808.36,299.52 C813.4,300.36 818.16,300.92 822.08,300.92 C827.4,300.92 833.56,300.36 840.56,299.52 C847.28,298.4 853.72,296.72 859.88,293.92 C866.04,291.68 871.08,288.32 875.56,283.84 C879.48,279.92 881.72,274.6 881.72,268.16 Z M953.68,133.2 C953.68,127.88 951.44,123.4 946.96,119.48 C944.44,117.8 941.92,116.68 939.4,115.56 C936.6,114.72 933.8,114.16 930.72,114.16 C925.96,114.16 921.76,115.84 917.84,118.64 C914.2,121.72 912.52,125.36 912.52,129.84 C912.52,135.44 915.04,140.2 920.36,143.84 C924.84,147.2 929.88,148.88 936.04,148.88 C941.08,148.88 945.28,147.76 948.64,144.96 C952,142.16 953.68,138.24 953.68,133.2 Z M947.52,185.84 C947.52,183.88 946.4,181.92 944.72,179.96 C942.76,178.28 940.8,176.88 938.84,175.76 C935.48,174.08 931.84,172.96 928.48,172.96 C926.94,172.96 925.164722,173.195278 923.369838,173.665833 L922.88,173.8 C920.64,174.36 918.96,175.48 917.84,176.88 C916.44,178.56 915.6,181.08 915.32,184.16 C914.76,187.52 914.48,191.72 914.48,197.04 L913.92,253.6 L913.92,277.96 C913.92,280.2 914.2,282.72 915.32,284.96 C916.16,287.2 917.56,289.44 919.8,291.12 L919.950671,291.265152 C920.591168,291.862784 921.9616,292.9344 924.28,294.48 C926.8,296.16 929.04,297 931.28,297 C933.24,297 935.48,296.44 938.28,295.04 C941.08,293.92 942.76,291.96 943.88,289.16 C945.56,285.52 946.68,281.88 946.68,278.52 C946.4,278.24 946.4,277.96 946.4,277.4 C946.4,277.12 946.12,276.56 946.12,276 C945.84,275.44 945.84,274.88 945.84,274.32 C945.84,273.76 945.56,273.2 945.56,272.36 C944.72,269.84 944.16,267.04 944.16,263.96 L943.88,254.16 L943.881296,233.416667 C943.887778,230.072222 943.926667,226.533333 944.16,222.8 L944.165983,221.72957 C944.204645,218.244931 944.418207,215.588763 944.438458,213.576961 L944.44,209.92 L945,205.16 L945.56,200.12 C945.56,198.44 945.84,197.04 946.12,195.92 C946.4,193.68 946.68,191.72 947.24,189.76 C947.24,187.8 947.52,186.4 947.52,185.84 Z M1112.44,228.12 C1112.44,209.36 1107.12,194.52 1097.04,183.6 C1086.68,172.68 1071.84,167.08 1052.8,167.08 C1046.64,167.08 1041.04,168.2 1035.44,170.44 C1029.84,172.68 1025.08,176.04 1020.88,179.96 L1020.88261,178.259344 C1020.89241,176.000443 1020.93895,173.254737 1021.16,170.16 C1021.16,166.24 1021.44,161.76 1021.44,156.72 L1022,142.16 L1022,127.6 C1022,121.72 1022.56,117.52 1023.68,114.72 L1024.01152,113.71648 C1024.4416,112.3904 1024.8,111.136 1024.8,110.24 C1024.8,109.12 1025.08,108 1025.08,107.44 C1025.08,104.92 1023.12,102.96 1019.48,101.28 C1016.12,100.16 1012.76,99.32 1009.4,99.32 C1005.76,99.32 1001.28,101 995.96,104.08 L994.981203,104.73773 C992.922311,106.133333 991.256,107.346667 989.8,108.56 C988.12,110.24 987.28,111.64 987.28,113.32 C987.28,114.72 987.84,116.96 989.24,119.76 L989.345,120.62625 C989.59,122.70875 989.835,125.22 990.08,128.16 L991.2,139.64 L991.390405,143.434338 C991.573928,147.152972 991.726482,150.665143 991.755157,154.156668 L991.764082,156.378571 C991.798571,160.872857 992.04,164.16 992.04,166.24 L992.030398,166.882963 C991.981235,168.818765 991.76,172.524444 991.76,178 L991.2,198.72 L990.64,221.68 L990.590713,223.127168 C990.406143,228.825059 990.369229,233.440137 990.361846,237.208652 L990.362613,241.93434 C990.37241,244.635346 990.418947,247.823158 990.64,251.36 L990.64224,254.35264 C990.6512,258.304 990.696,262.112 990.92,265.92 L991.48,278.24 L991.76,284.12 C991.76,287.48 992.32,290.28 993.44,292.8 C994,295.32 995.68,297.28 997.92,298.96 C1001,301.48 1004.36,302.88 1008.28,302.88 C1010.8,302.88 1013.04,302.32 1014.72,301.76 C1016.4,301.2 1018.08,299.8 1020.04,297.56 C1021.16,295.88 1022,293.64 1022.56,290.84 L1022.82963,288.413333 C1022.99556,286.857778 1023.12,285.426667 1023.12,284.12 C1026.48,288.6 1031.52,291.96 1038.52,293.92 C1045.24,296.16 1052.24,297 1059.24,297 C1069.32,297 1077.72,294.76 1084.72,290 C1091.44,285.52 1096.76,279.92 1100.96,272.92 C1104.88,266.2 1107.96,258.64 1109.92,250.52 C1111.6,242.68 1112.44,235.12 1112.44,228.12 Z M1080.52,226.72 C1080.52,243.812923 1077.80549,256.291181 1072.64375,264.154774 L1072.4,264.52 C1067.08,272.64 1059.8,276.56 1050.84,276.56 C1041.04,276.56 1033.76,273.2 1028.72,266.48 C1023.68,259.76 1021.44,250.24 1021.44,237.92 C1021.44,233.44 1022,228.12 1023.12,222.52 C1024.24,216.92 1026.48,211.88 1029.28,207.12 C1032.08,202.64 1035.72,198.72 1040.2,195.36 C1044.68,192.28 1050,190.6 1056.72,190.6 C1063.72,190.6 1069.6,193.4 1074.08,199 C1078.28,204.6 1080.52,213.84 1080.52,226.72 Z M1180.48,284.12 C1180.48,283.56 1180.2,282.72 1180.2,281.6 C1179.92,280.76 1179.36,279.64 1178.8,277.96 C1176.89444,273.332222 1175.25355,266.58716 1174.13462,257.982124 L1174.04,257.24 C1172.95294,248.543529 1172.39343,238.000657 1172.36145,225.611384 L1172.36,159.52 C1172.36,155.6 1172.64,151.68 1173.2,148.32 C1173.48,145.24 1174.04,142.44 1174.6,139.92 C1174.88,137.4 1175.44,134.88 1176.56,132.36 L1179.08,125.08 L1179.40731,123.752314 C1180.06231,121.048347 1180.48,118.970909 1180.48,117.52 C1180.48,113.04 1178.24,109.4 1174.32,106.6 C1169.84,103.8 1165.36,102.12 1160.88,102.12 C1158.92,102.12 1156.4,102.68 1153.32,103.52 C1150.24,104.64 1146.88,106.6 1143.24,108.84 C1143.24,112.48 1143.52,116.12 1144.08,119.76 L1144.21417,120.722338 C1144.66333,124.028137 1144.89813,126.672946 1144.91854,128.469187 L1144.92,162.04 L1144.36,190.04 L1144.36,217.76 L1144.30418,219.598571 C1144.11449,226.261429 1144.08531,232.06 1144.08082,236.994286 L1144.08,249.4 C1144.08,265.084828 1145.973,276.983662 1149.75899,284.830739 L1149.96,285.24 C1153.88,293.36 1158.92,297.28 1165.64,297.28 C1169.56,297.28 1172.92,296.16 1176,293.64 C1178.8,291.4 1180.48,288.04 1180.48,284.12 Z M1334.76,274.04 C1334.76,271.8 1333.36,269.84 1330.84,268.16 C1328.04,266.76 1325.52,265.92 1322.72,265.92 C1322.16,265.92 1321.04,266.2 1319.64,266.48 C1317.96,267.04 1316.56,267.88 1314.88,268.72 C1309.84,272.08 1304.24,274.88 1297.8,277.12 C1291.08,279.92 1284.36,281.04 1277.64,281.04 C1266.44,281.04 1258.32,277.68 1252.72,270.96 C1247.12,264.24 1244.04,256.12 1243.48,246.04 C1247.12,248 1251.32,249.68 1256.08,250.8 C1260.56,252.2 1265.88,252.76 1272.04,252.76 C1279.88,252.76 1287.44,251.92 1295.28,249.68 C1302.56,247.44 1309.28,244.64 1315.16,240.72 C1320.76,237.36 1325.52,233.16 1329.16,228.4 C1332.52,223.92 1334.48,218.88 1334.48,213.56 C1334.48,205.72 1331.96,199 1327.2,193.12 C1322.16,187.52 1315.72,183.04 1308.16,179.12 C1301.72,176.32 1295,174.08 1288,172.4 C1280.72,171 1273.44,170.16 1266.44,170.16 C1258.88,170.16 1251.88,172.4 1245.44,176.88 C1238.72,181.64 1232.84,187.52 1227.8,194.8 C1222.76,202.08 1218.56,209.92 1215.76,218.88 C1212.68,227.84 1211.28,236.52 1211.28,245.2 C1211.28,251.6512 1212.31219,258.1024 1214.37658,264.305874 L1214.64,265.08 C1216.88,271.8 1220.24,277.68 1225.28,282.72 C1230.32,287.76 1236.76,291.96 1244.6,295.04 C1252.44,298.12 1261.96,299.8 1273.44,299.8 C1279.6,299.8 1286.32,299.24 1293.6,298.4 C1300.6,297.28 1307.04,295.6 1313.2,293.36 C1319.36,291.4 1324.4,288.88 1328.6,285.52 C1332.52,282.16 1334.76,278.52 1334.76,274.04 Z M1307.88,214.4 C1307.88,217.2 1306.76,219.72 1304.8,221.96 C1302.56,224.48 1300.04,226.72 1296.68,228.4 C1293.32,230.08 1289.4,231.48 1285.2,232.6 C1280.72,233.72 1276.52,234.28 1272.04,234.28 C1264.48,234.28 1258.6,233.16 1254.68,230.64 C1250.48,228.4 1247.68,225.32 1246.28,221.96 C1248.52,213.56 1252.44,206.56 1257.48,200.96 C1262.52,195.36 1268.12,192.28 1274.84,192.28 C1278.48,192.28 1282.4,192.84 1286.32,193.68 C1290.24,194.8 1293.6,196.2 1296.96,197.88 C1300.04,199.84 1302.56,202.08 1304.8,204.88 C1306.76,207.68 1307.88,210.76 1307.88,214.4 Z" id="Accessible"></path>
            </g>
        </g>
    </g>
</svg>