<?xml version="1.0" encoding="UTF-8" standalone="no"?>
<!DOCTYPE svg PUBLIC "-//W3C//DTD SVG 1.1//EN" "http://www.w3.org/Graphics/SVG/1.1/DTD/svg11.dtd">
<svg width="100%" height="100%" viewBox="0 0 1046 243" version="1.1" xmlns="http://www.w3.org/2000/svg" xmlns:xlink="http://www.w3.org/1999/xlink" xml:space="preserve" xmlns:serif="http://www.serif.com/" style="fill-rule:evenodd;clip-rule:evenodd;">
    <g transform="matrix(1,0,0,1,-320.964,-167.179)">
        <g id="logo" transform="matrix(0.511931,0,0,0.511931,843.901,288.251)">
            <g transform="matrix(1,0,0,1,-1021.5,-236.5)">
                <clipPath id="_clip1">
                    <rect x="0" y="0" width="2043" height="473"/>
                </clipPath>
                <g clip-path="url(#_clip1)">
                    <g transform="matrix(1,0,0,1,0,-99)">
                        <g id="Page-1">
                            <g id="logo1" serif:id="logo">
                                <g id="bubble" transform="matrix(1,0,0,1,0,100)">
                                    <path id="Shape" d="M492.342,0L64.658,0C28.961,0 0,28.987 0,64.714L0,321.549C0,357.277 28.961,386.263 64.658,386.263L109.784,386.263L149.521,439.518C152.215,442.888 160.971,453 174.441,453C180.503,453 189.932,450.304 198.688,438.844L238.426,386.263L492.342,386.263C528.039,386.263 557,357.277 557,321.549L557,65.388C557,29.661 528.039,0 492.342,0ZM532.08,321.223C532.08,343.469 513.895,360.996 492.342,360.996L231.69,360.996C227.649,360.996 224.282,363.018 221.588,365.714L178.482,423.688C175.788,427.058 174.441,427.732 174.441,427.732C173.768,427.732 171.074,425.71 169.727,423.688L126.622,365.714C124.601,362.344 120.56,360.996 116.519,360.996L65.331,360.996C43.105,360.996 25.594,342.795 25.594,321.223L25.594,64.388C25.594,42.143 43.779,24.616 65.331,24.616L493.016,24.616C515.242,24.616 532.753,42.817 532.753,64.388L532.753,321.223L532.08,321.223ZM453.952,195.165C453.952,201.906 448.563,207.299 441.828,207.299L113.825,207.299C107.089,207.299 101.701,201.906 101.701,195.165C101.701,188.424 107.089,183.031 113.825,183.031L441.828,183.031C448.563,182.357 453.952,187.75 453.952,195.165ZM453.952,270.991C453.952,277.732 448.563,283.125 441.828,283.125L113.825,283.125C107.089,283.125 101.701,277.732 101.701,270.991C101.701,264.25 107.089,258.857 113.825,258.857L441.828,258.857C448.563,258.183 453.952,263.576 453.952,270.991ZM101.028,122.013C101.028,115.272 106.416,109.879 113.151,109.879L310.492,109.879C317.227,109.879 322.615,115.272 322.615,122.013C322.615,128.754 317.227,134.147 310.492,134.147L113.825,134.147C107.089,134.821 101.028,128.754 101.028,122.013Z" style="fill:rgb(200,119,2);fill-rule:nonzero;"/>
                                </g>
                                <g id="door" transform="matrix(1,0,0,1,348,182)">
                                    <rect id="Fill-99" x="71" y="24" width="183" height="323" style="fill:white;"/>
                                    <path id="Fill-3" d="M136.499,198.288C139.105,198.288 142.457,192.69 142.457,184.996C142.457,177.292 139.112,171.713 136.499,171.713C133.894,171.713 130.549,177.294 130.549,184.996C130.549,192.688 133.9,198.288 136.499,198.288ZM12.412,7.426L12.41,7.426L159.279,-4.929C164.573,-5.375 169.769,-3.701 173.734,-0.255C177.734,3.232 180,8.143 180,13.374L180,356.632C180,362.127 177.46,367.3 173.097,370.776C168.791,374.229 163.142,375.658 157.638,374.718L10.764,349.84C1.669,348.292 -5,340.727 -5,331.74L-5,25.724C-5,16.137 2.6,8.247 12.412,7.426Z" style="fill:rgb(114,148,66);stroke:white;stroke-width:10px;"/>
                                    <path id="Fill-6" d="M237.153,37.83L180,37.83L180,7L253.089,7C257.242,7 261.304,8.609 264.245,11.43C267.27,14.304 269,18.296 269,22.423L269,132L237.153,132L237.153,37.83Z" style="fill:rgb(114,148,66);stroke:white;stroke-width:10px;"/>
                                    <path id="Fill-7" d="M237.153,333.084L237.153,223L269,223L269,348.537C269,352.67 267.271,356.677 264.28,359.522C261.324,362.385 257.257,364 253.089,364L180,364L180,333.084L237.153,333.084Z" style="fill:rgb(114,148,66);stroke:white;stroke-width:10px;"/>
                                    <rect id="Rectangle" x="242" y="31" width="22" height="308" style="fill:rgb(114,148,66);"/>
                                </g>
                                <g transform="matrix(1,0,0,1,708,565)">
                                    <g id="Duffield">
                                        <g transform="matrix(280,0,0,280,0,0)">
                                            <path d="M0.602,-0.423C0.602,-0.462 0.596,-0.498 0.584,-0.531C0.572,-0.564 0.555,-0.593 0.533,-0.617C0.511,-0.64 0.484,-0.658 0.454,-0.672C0.423,-0.685 0.389,-0.692 0.353,-0.692C0.321,-0.692 0.288,-0.686 0.255,-0.676C0.221,-0.665 0.191,-0.651 0.163,-0.633C0.162,-0.635 0.162,-0.638 0.162,-0.64C0.162,-0.642 0.161,-0.643 0.16,-0.645C0.158,-0.649 0.154,-0.653 0.15,-0.657C0.145,-0.66 0.14,-0.663 0.134,-0.665C0.128,-0.667 0.122,-0.669 0.116,-0.671C0.109,-0.672 0.104,-0.673 0.1,-0.673C0.096,-0.673 0.091,-0.671 0.086,-0.667C0.08,-0.663 0.074,-0.659 0.069,-0.655C0.063,-0.649 0.059,-0.644 0.056,-0.639C0.052,-0.633 0.05,-0.629 0.05,-0.626C0.05,-0.619 0.052,-0.613 0.054,-0.609C0.055,-0.603 0.057,-0.598 0.059,-0.594C0.064,-0.584 0.068,-0.574 0.07,-0.566L0.073,-0.542L0.071,-0.538C0.069,-0.535 0.068,-0.532 0.067,-0.529C0.065,-0.526 0.065,-0.523 0.065,-0.52C0.065,-0.514 0.066,-0.509 0.069,-0.503C0.071,-0.497 0.075,-0.492 0.079,-0.488C0.081,-0.456 0.083,-0.422 0.084,-0.388C0.084,-0.353 0.085,-0.315 0.085,-0.273L0.085,-0.217C0.085,-0.199 0.084,-0.182 0.084,-0.165L0.081,-0.094C0.079,-0.071 0.079,-0.055 0.079,-0.045C0.079,-0.039 0.08,-0.034 0.084,-0.03C0.088,-0.025 0.092,-0.021 0.098,-0.018C0.103,-0.014 0.108,-0.011 0.114,-0.009C0.12,-0.007 0.125,-0.006 0.129,-0.006C0.133,-0.006 0.137,-0.006 0.142,-0.008C0.147,-0.009 0.152,-0.011 0.158,-0.013C0.162,-0.015 0.166,-0.019 0.17,-0.023C0.174,-0.026 0.176,-0.03 0.178,-0.035C0.199,-0.024 0.222,-0.016 0.246,-0.01C0.269,-0.004 0.288,-0.001 0.302,-0.001C0.347,-0.001 0.388,-0.009 0.426,-0.025C0.462,-0.041 0.494,-0.066 0.52,-0.101C0.546,-0.135 0.566,-0.178 0.58,-0.232C0.594,-0.285 0.602,-0.349 0.602,-0.423ZM0.497,-0.406C0.497,-0.347 0.491,-0.297 0.481,-0.255C0.47,-0.213 0.456,-0.179 0.438,-0.153C0.42,-0.126 0.4,-0.106 0.377,-0.094C0.353,-0.081 0.329,-0.075 0.304,-0.075C0.288,-0.075 0.275,-0.077 0.263,-0.082C0.251,-0.086 0.24,-0.091 0.23,-0.097L0.216,-0.106C0.212,-0.108 0.207,-0.111 0.203,-0.114C0.195,-0.118 0.188,-0.121 0.183,-0.123C0.183,-0.137 0.184,-0.151 0.184,-0.165L0.184,-0.257C0.184,-0.273 0.183,-0.29 0.183,-0.306C0.183,-0.316 0.182,-0.33 0.182,-0.347L0.182,-0.456L0.18,-0.515L0.186,-0.521C0.187,-0.523 0.189,-0.525 0.191,-0.527C0.195,-0.533 0.199,-0.537 0.202,-0.539C0.208,-0.545 0.214,-0.55 0.22,-0.556C0.225,-0.561 0.23,-0.566 0.236,-0.571L0.25,-0.582C0.254,-0.585 0.259,-0.588 0.265,-0.592C0.275,-0.597 0.286,-0.601 0.298,-0.605C0.31,-0.607 0.326,-0.609 0.345,-0.609C0.367,-0.609 0.387,-0.603 0.406,-0.593C0.424,-0.581 0.44,-0.566 0.454,-0.548C0.467,-0.529 0.478,-0.507 0.486,-0.483C0.493,-0.458 0.497,-0.432 0.497,-0.406Z" style="fill-rule:nonzero;"/>
                                        </g>
                                        <g transform="matrix(280,0,0,280,182.56,0)">
                                            <path d="M0.431,-0.03C0.431,-0.032 0.428,-0.04 0.423,-0.052C0.419,-0.06 0.416,-0.069 0.414,-0.079C0.412,-0.088 0.41,-0.099 0.409,-0.111C0.407,-0.123 0.406,-0.138 0.406,-0.154C0.405,-0.17 0.405,-0.189 0.405,-0.211C0.405,-0.213 0.405,-0.219 0.406,-0.227L0.406,-0.255L0.408,-0.285C0.408,-0.294 0.409,-0.302 0.41,-0.308C0.411,-0.319 0.412,-0.329 0.414,-0.337C0.414,-0.345 0.415,-0.355 0.417,-0.366C0.418,-0.374 0.419,-0.381 0.42,-0.388C0.421,-0.394 0.422,-0.399 0.422,-0.402C0.422,-0.407 0.419,-0.413 0.413,-0.419C0.407,-0.425 0.4,-0.431 0.393,-0.435C0.387,-0.438 0.38,-0.441 0.372,-0.443C0.364,-0.445 0.358,-0.446 0.356,-0.446C0.352,-0.446 0.346,-0.445 0.34,-0.443C0.333,-0.441 0.328,-0.438 0.324,-0.433C0.32,-0.427 0.317,-0.421 0.316,-0.413C0.315,-0.404 0.315,-0.39 0.315,-0.371L0.315,-0.316C0.315,-0.301 0.314,-0.285 0.314,-0.267C0.314,-0.249 0.313,-0.231 0.313,-0.213C0.312,-0.197 0.31,-0.181 0.306,-0.165C0.302,-0.148 0.297,-0.133 0.29,-0.119C0.282,-0.105 0.273,-0.093 0.261,-0.085C0.249,-0.075 0.234,-0.071 0.218,-0.071C0.194,-0.071 0.177,-0.081 0.166,-0.103C0.154,-0.125 0.149,-0.153 0.149,-0.189C0.149,-0.191 0.149,-0.198 0.15,-0.21L0.15,-0.283C0.15,-0.294 0.151,-0.302 0.151,-0.306C0.151,-0.312 0.151,-0.321 0.153,-0.333L0.157,-0.368L0.16,-0.393C0.161,-0.398 0.162,-0.403 0.162,-0.409C0.162,-0.415 0.16,-0.42 0.158,-0.425C0.154,-0.43 0.15,-0.435 0.146,-0.439C0.14,-0.442 0.134,-0.445 0.128,-0.447C0.122,-0.449 0.116,-0.451 0.11,-0.451C0.1,-0.451 0.091,-0.448 0.082,-0.444C0.072,-0.439 0.061,-0.433 0.05,-0.426C0.05,-0.418 0.051,-0.41 0.053,-0.403L0.056,-0.38C0.056,-0.372 0.057,-0.364 0.057,-0.356C0.057,-0.348 0.056,-0.336 0.056,-0.321L0.056,-0.276L0.054,-0.234L0.054,-0.209C0.054,-0.183 0.056,-0.158 0.06,-0.134C0.063,-0.11 0.07,-0.088 0.082,-0.069C0.094,-0.05 0.11,-0.035 0.132,-0.024C0.152,-0.012 0.18,-0.007 0.216,-0.007C0.233,-0.007 0.251,-0.012 0.27,-0.022C0.288,-0.032 0.303,-0.044 0.315,-0.06C0.319,-0.04 0.327,-0.023 0.338,-0.009C0.349,0.005 0.363,0.012 0.381,0.012C0.395,0.012 0.406,0.008 0.416,0.001C0.421,-0.003 0.425,-0.007 0.428,-0.013C0.43,-0.019 0.431,-0.024 0.431,-0.03Z" style="fill-rule:nonzero;"/>
                                        </g>
                                        <g transform="matrix(280,0,0,280,317.24,0)">
                                            <path d="M0.745,-0.535C0.745,-0.555 0.737,-0.571 0.723,-0.584C0.707,-0.597 0.689,-0.604 0.669,-0.604C0.654,-0.604 0.64,-0.598 0.628,-0.587C0.616,-0.577 0.611,-0.563 0.611,-0.547C0.611,-0.527 0.619,-0.51 0.636,-0.497C0.65,-0.485 0.666,-0.479 0.686,-0.479C0.694,-0.479 0.701,-0.48 0.709,-0.483C0.716,-0.485 0.722,-0.488 0.728,-0.494C0.739,-0.504 0.745,-0.517 0.745,-0.535ZM0.725,-0.388C0.725,-0.396 0.721,-0.403 0.715,-0.41C0.708,-0.416 0.702,-0.421 0.696,-0.425C0.684,-0.431 0.672,-0.435 0.662,-0.435C0.656,-0.435 0.65,-0.434 0.644,-0.432C0.637,-0.43 0.632,-0.426 0.628,-0.421C0.624,-0.415 0.621,-0.406 0.62,-0.395C0.618,-0.383 0.617,-0.368 0.617,-0.349L0.616,-0.15L0.616,-0.063C0.616,-0.054 0.617,-0.046 0.62,-0.038C0.622,-0.03 0.627,-0.022 0.634,-0.016C0.636,-0.013 0.641,-0.009 0.649,-0.003C0.657,0.003 0.664,0.006 0.671,0.006C0.678,0.006 0.686,0.003 0.696,-0.001C0.704,-0.006 0.71,-0.013 0.713,-0.023C0.719,-0.035 0.722,-0.048 0.722,-0.061C0.722,-0.061 0.721,-0.064 0.72,-0.07C0.719,-0.071 0.719,-0.073 0.719,-0.075C0.719,-0.077 0.718,-0.08 0.718,-0.082C0.716,-0.086 0.716,-0.091 0.716,-0.097L0.714,-0.113L0.714,-0.147C0.713,-0.167 0.713,-0.189 0.713,-0.215C0.713,-0.229 0.713,-0.243 0.714,-0.258C0.714,-0.272 0.715,-0.283 0.715,-0.291C0.715,-0.297 0.715,-0.307 0.717,-0.321C0.718,-0.334 0.719,-0.345 0.721,-0.353L0.724,-0.374C0.724,-0.38 0.725,-0.385 0.725,-0.388ZM0.587,-0.585C0.587,-0.601 0.584,-0.616 0.578,-0.629C0.572,-0.641 0.565,-0.652 0.556,-0.661C0.546,-0.669 0.536,-0.676 0.524,-0.681C0.512,-0.685 0.499,-0.687 0.487,-0.687C0.461,-0.687 0.44,-0.678 0.422,-0.661C0.404,-0.644 0.389,-0.623 0.378,-0.597C0.366,-0.57 0.357,-0.541 0.352,-0.509C0.346,-0.477 0.344,-0.445 0.344,-0.415L0.344,-0.392L0.277,-0.389L0.265,-0.389C0.259,-0.389 0.252,-0.39 0.244,-0.39C0.236,-0.39 0.229,-0.39 0.222,-0.391L0.204,-0.391C0.205,-0.42 0.207,-0.447 0.21,-0.473C0.212,-0.498 0.216,-0.52 0.22,-0.539C0.223,-0.557 0.227,-0.571 0.232,-0.582C0.237,-0.592 0.242,-0.598 0.248,-0.598C0.254,-0.598 0.259,-0.594 0.264,-0.587C0.268,-0.579 0.27,-0.57 0.27,-0.561C0.274,-0.556 0.278,-0.552 0.284,-0.548C0.29,-0.544 0.295,-0.542 0.301,-0.542C0.312,-0.542 0.323,-0.546 0.334,-0.555C0.345,-0.563 0.351,-0.573 0.351,-0.585C0.351,-0.601 0.348,-0.616 0.342,-0.629C0.336,-0.641 0.329,-0.652 0.32,-0.661C0.31,-0.669 0.3,-0.676 0.288,-0.681C0.276,-0.685 0.263,-0.687 0.251,-0.687C0.225,-0.687 0.204,-0.678 0.186,-0.661C0.168,-0.644 0.154,-0.623 0.144,-0.597C0.132,-0.57 0.124,-0.541 0.12,-0.509C0.114,-0.477 0.112,-0.445 0.112,-0.415L0.112,-0.405C0.111,-0.401 0.111,-0.396 0.111,-0.39L0.081,-0.39C0.076,-0.389 0.072,-0.389 0.069,-0.389C0.065,-0.389 0.063,-0.388 0.062,-0.388C0.05,-0.385 0.042,-0.379 0.038,-0.371C0.032,-0.363 0.03,-0.353 0.03,-0.342C0.03,-0.328 0.035,-0.317 0.046,-0.308C0.056,-0.299 0.067,-0.295 0.079,-0.295L0.09,-0.295C0.095,-0.295 0.101,-0.296 0.109,-0.297C0.108,-0.273 0.108,-0.25 0.108,-0.227L0.106,-0.161L0.106,-0.108C0.105,-0.092 0.105,-0.081 0.105,-0.075C0.105,-0.065 0.106,-0.055 0.108,-0.045C0.11,-0.034 0.114,-0.024 0.12,-0.015C0.124,-0.005 0.13,0.003 0.138,0.009C0.146,0.015 0.155,0.019 0.165,0.019C0.169,0.019 0.173,0.018 0.179,0.017C0.184,0.015 0.189,0.012 0.195,0.009C0.2,0.005 0.205,0.002 0.209,-0.002C0.213,-0.006 0.215,-0.01 0.216,-0.016C0.214,-0.025 0.212,-0.037 0.21,-0.053C0.208,-0.069 0.207,-0.092 0.207,-0.123C0.207,-0.128 0.206,-0.137 0.206,-0.151L0.206,-0.196L0.204,-0.249L0.204,-0.302L0.221,-0.302L0.231,-0.303L0.326,-0.303C0.332,-0.302 0.338,-0.302 0.342,-0.302L0.34,-0.231L0.338,-0.163L0.338,-0.109C0.337,-0.093 0.337,-0.081 0.337,-0.075C0.337,-0.065 0.338,-0.055 0.34,-0.045C0.342,-0.034 0.346,-0.024 0.351,-0.015C0.355,-0.005 0.361,0.003 0.369,0.009C0.376,0.015 0.385,0.019 0.395,0.019C0.399,0.019 0.404,0.018 0.41,0.017C0.415,0.015 0.42,0.012 0.426,0.009C0.431,0.005 0.436,0.002 0.44,-0.002C0.444,-0.006 0.446,-0.01 0.447,-0.016L0.442,-0.053C0.439,-0.069 0.438,-0.092 0.438,-0.123L0.438,-0.151L0.436,-0.197L0.436,-0.25C0.435,-0.268 0.435,-0.286 0.435,-0.303L0.449,-0.303C0.453,-0.302 0.458,-0.302 0.463,-0.302C0.486,-0.302 0.503,-0.306 0.514,-0.315C0.524,-0.323 0.53,-0.335 0.53,-0.349C0.53,-0.352 0.529,-0.356 0.528,-0.362C0.525,-0.374 0.518,-0.383 0.508,-0.388C0.498,-0.392 0.486,-0.395 0.472,-0.395L0.46,-0.395C0.453,-0.395 0.445,-0.394 0.435,-0.394C0.436,-0.423 0.438,-0.45 0.442,-0.475C0.444,-0.5 0.448,-0.522 0.453,-0.54C0.457,-0.558 0.462,-0.572 0.468,-0.583C0.472,-0.593 0.477,-0.598 0.483,-0.598C0.489,-0.598 0.495,-0.594 0.5,-0.587C0.504,-0.579 0.506,-0.57 0.506,-0.561C0.51,-0.556 0.514,-0.552 0.52,-0.548C0.526,-0.544 0.531,-0.542 0.537,-0.542C0.548,-0.542 0.559,-0.546 0.57,-0.555C0.581,-0.563 0.587,-0.573 0.587,-0.585Z" style="fill-rule:nonzero;"/>
                                        </g>
                                        <g transform="matrix(280,0,0,280,539.84,0)">
                                            <path d="M0.481,-0.082C0.481,-0.09 0.476,-0.097 0.467,-0.103C0.457,-0.108 0.448,-0.111 0.438,-0.111C0.436,-0.111 0.432,-0.11 0.427,-0.109C0.421,-0.107 0.416,-0.104 0.41,-0.101C0.392,-0.089 0.372,-0.079 0.349,-0.071C0.325,-0.061 0.301,-0.057 0.277,-0.057C0.237,-0.057 0.208,-0.069 0.188,-0.093C0.168,-0.117 0.157,-0.146 0.155,-0.182C0.168,-0.175 0.183,-0.169 0.2,-0.165C0.216,-0.16 0.235,-0.158 0.257,-0.158C0.285,-0.158 0.312,-0.161 0.34,-0.169C0.366,-0.177 0.39,-0.187 0.411,-0.201C0.431,-0.213 0.448,-0.228 0.461,-0.245C0.473,-0.261 0.48,-0.279 0.48,-0.298C0.48,-0.326 0.471,-0.35 0.454,-0.371C0.436,-0.391 0.413,-0.407 0.386,-0.421C0.363,-0.431 0.339,-0.439 0.314,-0.445C0.288,-0.45 0.262,-0.453 0.237,-0.453C0.21,-0.453 0.185,-0.445 0.162,-0.429C0.138,-0.412 0.117,-0.391 0.099,-0.365C0.081,-0.339 0.066,-0.311 0.056,-0.279C0.045,-0.247 0.04,-0.216 0.04,-0.185C0.04,-0.161 0.044,-0.137 0.052,-0.114C0.06,-0.09 0.072,-0.069 0.09,-0.051C0.108,-0.033 0.131,-0.018 0.159,-0.007C0.187,0.004 0.221,0.01 0.262,0.01C0.284,0.01 0.308,0.008 0.334,0.005C0.359,0.001 0.382,-0.005 0.404,-0.013C0.426,-0.02 0.444,-0.029 0.459,-0.041C0.473,-0.053 0.481,-0.066 0.481,-0.082ZM0.385,-0.295C0.385,-0.285 0.381,-0.276 0.374,-0.268C0.366,-0.259 0.357,-0.251 0.345,-0.245C0.333,-0.239 0.319,-0.234 0.304,-0.23C0.288,-0.226 0.273,-0.224 0.257,-0.224C0.23,-0.224 0.209,-0.228 0.195,-0.237C0.18,-0.245 0.17,-0.256 0.165,-0.268C0.173,-0.298 0.187,-0.323 0.205,-0.343C0.223,-0.363 0.243,-0.374 0.267,-0.374C0.28,-0.374 0.294,-0.372 0.308,-0.369C0.322,-0.365 0.334,-0.36 0.346,-0.354C0.357,-0.347 0.366,-0.339 0.374,-0.329C0.381,-0.319 0.385,-0.308 0.385,-0.295Z" style="fill-rule:nonzero;"/>
                                        </g>
                                        <g transform="matrix(280,0,0,280,685.72,0)">
                                            <path d="M0.203,-0.046C0.203,-0.048 0.202,-0.051 0.202,-0.055C0.201,-0.058 0.199,-0.062 0.197,-0.068C0.19,-0.085 0.184,-0.11 0.18,-0.142C0.176,-0.174 0.174,-0.213 0.174,-0.259L0.174,-0.491C0.174,-0.505 0.175,-0.519 0.177,-0.531C0.178,-0.542 0.18,-0.552 0.182,-0.561C0.183,-0.57 0.185,-0.579 0.189,-0.588L0.198,-0.614C0.201,-0.626 0.203,-0.635 0.203,-0.641C0.203,-0.657 0.195,-0.67 0.181,-0.68C0.165,-0.69 0.149,-0.696 0.133,-0.696C0.126,-0.696 0.117,-0.694 0.106,-0.691C0.095,-0.687 0.083,-0.68 0.07,-0.672C0.07,-0.659 0.071,-0.646 0.073,-0.633C0.075,-0.619 0.076,-0.608 0.076,-0.601L0.076,-0.482L0.074,-0.382L0.074,-0.283C0.073,-0.252 0.073,-0.226 0.073,-0.205L0.073,-0.17C0.073,-0.113 0.08,-0.07 0.094,-0.042C0.108,-0.013 0.126,0.001 0.15,0.001C0.164,0.001 0.176,-0.003 0.187,-0.012C0.197,-0.02 0.203,-0.032 0.203,-0.046Z" style="fill-rule:nonzero;"/>
                                        </g>
                                        <g transform="matrix(280,0,0,280,762.16,0)">
                                            <path d="M0.493,-0.639C0.493,-0.651 0.481,-0.663 0.459,-0.674C0.451,-0.678 0.443,-0.681 0.436,-0.683C0.428,-0.685 0.422,-0.686 0.417,-0.686C0.409,-0.686 0.402,-0.684 0.398,-0.681C0.393,-0.677 0.389,-0.673 0.386,-0.667C0.383,-0.662 0.381,-0.655 0.38,-0.647C0.378,-0.639 0.376,-0.63 0.376,-0.621C0.374,-0.612 0.374,-0.603 0.374,-0.595C0.373,-0.586 0.373,-0.579 0.373,-0.575C0.373,-0.569 0.372,-0.553 0.372,-0.525C0.371,-0.496 0.37,-0.46 0.37,-0.416C0.355,-0.43 0.337,-0.441 0.316,-0.449C0.294,-0.457 0.27,-0.462 0.244,-0.462C0.207,-0.462 0.176,-0.452 0.15,-0.433C0.124,-0.413 0.104,-0.389 0.088,-0.361C0.071,-0.332 0.059,-0.301 0.052,-0.269C0.044,-0.237 0.04,-0.208 0.04,-0.183C0.04,-0.155 0.044,-0.13 0.053,-0.107C0.061,-0.084 0.074,-0.064 0.092,-0.047C0.108,-0.03 0.13,-0.017 0.156,-0.007C0.181,0.002 0.211,0.007 0.246,0.007C0.269,0.007 0.29,0.002 0.31,-0.007C0.33,-0.017 0.348,-0.033 0.364,-0.055C0.365,-0.046 0.366,-0.036 0.368,-0.025C0.37,-0.014 0.372,-0.007 0.375,-0.004C0.389,0.013 0.405,0.022 0.422,0.022C0.426,0.022 0.432,0.021 0.438,0.02L0.456,0.014C0.462,0.011 0.467,0.008 0.471,0.004C0.475,-0 0.477,-0.004 0.477,-0.01L0.474,-0.025C0.472,-0.029 0.471,-0.036 0.47,-0.044C0.469,-0.052 0.468,-0.061 0.468,-0.073C0.467,-0.084 0.467,-0.099 0.467,-0.117C0.467,-0.13 0.467,-0.147 0.468,-0.167L0.468,-0.229L0.47,-0.295L0.47,-0.355C0.47,-0.373 0.471,-0.389 0.472,-0.403L0.472,-0.427C0.472,-0.441 0.473,-0.461 0.475,-0.487L0.481,-0.566L0.484,-0.582L0.488,-0.605L0.49,-0.615C0.49,-0.617 0.49,-0.62 0.491,-0.624C0.491,-0.627 0.492,-0.63 0.492,-0.633C0.492,-0.635 0.493,-0.637 0.493,-0.639ZM0.365,-0.257C0.365,-0.239 0.363,-0.22 0.36,-0.198C0.356,-0.176 0.35,-0.155 0.341,-0.135C0.331,-0.115 0.318,-0.098 0.302,-0.085C0.286,-0.071 0.265,-0.064 0.239,-0.064C0.221,-0.064 0.206,-0.067 0.194,-0.075C0.182,-0.081 0.172,-0.09 0.166,-0.101C0.158,-0.112 0.153,-0.124 0.151,-0.138C0.148,-0.151 0.147,-0.164 0.147,-0.178C0.147,-0.194 0.148,-0.213 0.152,-0.235C0.156,-0.257 0.162,-0.279 0.172,-0.299C0.181,-0.319 0.194,-0.337 0.21,-0.352C0.225,-0.366 0.245,-0.374 0.269,-0.374C0.285,-0.374 0.3,-0.37 0.312,-0.364C0.324,-0.357 0.334,-0.348 0.342,-0.338C0.35,-0.327 0.356,-0.315 0.36,-0.301C0.363,-0.286 0.365,-0.271 0.365,-0.257Z" style="fill-rule:nonzero;"/>
                                        </g>
                                    </g>
                                </g>
                                <g transform="matrix(1,0,0,1,708,297)">
                                    <g id="Accessible">
                                        <g transform="matrix(280,0,0,280,0,0)">
                                            <path d="M0.604,-0.074C0.604,-0.082 0.603,-0.093 0.602,-0.109C0.601,-0.124 0.6,-0.142 0.598,-0.163C0.596,-0.183 0.593,-0.205 0.59,-0.229C0.587,-0.252 0.584,-0.276 0.58,-0.302L0.57,-0.371C0.566,-0.395 0.563,-0.419 0.559,-0.443L0.544,-0.515C0.538,-0.538 0.531,-0.561 0.524,-0.583C0.52,-0.594 0.514,-0.606 0.508,-0.619C0.502,-0.631 0.494,-0.643 0.485,-0.655C0.475,-0.665 0.464,-0.674 0.452,-0.682C0.439,-0.689 0.425,-0.693 0.409,-0.693C0.385,-0.693 0.363,-0.684 0.341,-0.667C0.319,-0.649 0.298,-0.627 0.278,-0.601C0.258,-0.573 0.239,-0.543 0.222,-0.509C0.204,-0.475 0.189,-0.442 0.175,-0.41C0.161,-0.377 0.149,-0.347 0.139,-0.319C0.129,-0.29 0.121,-0.267 0.117,-0.251C0.11,-0.253 0.104,-0.254 0.098,-0.256C0.091,-0.257 0.084,-0.258 0.077,-0.258C0.059,-0.258 0.047,-0.253 0.04,-0.244C0.038,-0.241 0.037,-0.239 0.036,-0.237L0.028,-0.221C0.027,-0.217 0.026,-0.214 0.025,-0.211C0.028,-0.201 0.031,-0.193 0.035,-0.187C0.038,-0.181 0.042,-0.176 0.048,-0.173C0.052,-0.169 0.058,-0.167 0.066,-0.166C0.072,-0.164 0.081,-0.163 0.091,-0.163C0.088,-0.152 0.085,-0.141 0.083,-0.129C0.08,-0.117 0.077,-0.105 0.075,-0.093C0.071,-0.079 0.069,-0.066 0.068,-0.054C0.066,-0.041 0.065,-0.029 0.065,-0.018C0.065,-0.012 0.068,-0.006 0.074,-0.002C0.079,0.002 0.086,0.006 0.094,0.01C0.101,0.013 0.109,0.015 0.117,0.017C0.125,0.019 0.131,0.02 0.137,0.02C0.149,0.02 0.16,0.015 0.17,0.005C0.18,-0.005 0.185,-0.015 0.185,-0.026C0.185,-0.048 0.186,-0.071 0.188,-0.095C0.19,-0.119 0.193,-0.142 0.197,-0.164C0.223,-0.165 0.249,-0.167 0.274,-0.169C0.298,-0.171 0.321,-0.173 0.345,-0.177C0.368,-0.179 0.392,-0.183 0.416,-0.187C0.439,-0.191 0.464,-0.196 0.49,-0.202C0.49,-0.198 0.49,-0.192 0.491,-0.185C0.491,-0.178 0.492,-0.171 0.492,-0.165L0.494,-0.144L0.494,-0.13C0.494,-0.124 0.493,-0.118 0.492,-0.113C0.49,-0.107 0.488,-0.101 0.487,-0.096C0.485,-0.09 0.483,-0.084 0.482,-0.079C0.48,-0.073 0.479,-0.066 0.479,-0.06C0.479,-0.052 0.481,-0.046 0.486,-0.04C0.49,-0.034 0.495,-0.028 0.502,-0.024C0.508,-0.019 0.516,-0.015 0.524,-0.013C0.532,-0.011 0.539,-0.01 0.546,-0.01C0.566,-0.01 0.581,-0.017 0.59,-0.031C0.599,-0.044 0.604,-0.058 0.604,-0.074ZM0.48,-0.278C0.436,-0.268 0.393,-0.261 0.35,-0.255C0.306,-0.248 0.262,-0.244 0.218,-0.244C0.225,-0.27 0.234,-0.298 0.244,-0.326C0.254,-0.354 0.265,-0.381 0.277,-0.409C0.289,-0.436 0.302,-0.463 0.317,-0.489C0.331,-0.514 0.347,-0.538 0.365,-0.561C0.374,-0.572 0.383,-0.581 0.392,-0.589C0.4,-0.597 0.406,-0.601 0.412,-0.601C0.413,-0.601 0.414,-0.599 0.416,-0.596C0.417,-0.592 0.418,-0.59 0.418,-0.59C0.423,-0.576 0.427,-0.563 0.431,-0.551C0.434,-0.539 0.437,-0.526 0.441,-0.513L0.45,-0.471L0.456,-0.433C0.461,-0.409 0.466,-0.383 0.47,-0.356C0.473,-0.328 0.476,-0.302 0.48,-0.278Z" style="fill-rule:nonzero;"/>
                                        </g>
                                        <g transform="matrix(280,0,0,280,183.12,0)">
                                            <path d="M0.465,-0.113C0.465,-0.125 0.459,-0.136 0.449,-0.147C0.443,-0.153 0.437,-0.157 0.431,-0.16C0.424,-0.162 0.418,-0.164 0.413,-0.164C0.397,-0.164 0.383,-0.154 0.371,-0.134C0.36,-0.116 0.344,-0.101 0.323,-0.088C0.301,-0.074 0.276,-0.068 0.247,-0.068C0.219,-0.068 0.197,-0.075 0.182,-0.09C0.166,-0.104 0.158,-0.132 0.158,-0.172C0.158,-0.19 0.16,-0.21 0.164,-0.234C0.168,-0.257 0.174,-0.279 0.184,-0.301C0.193,-0.321 0.205,-0.339 0.22,-0.354C0.234,-0.368 0.253,-0.376 0.275,-0.376C0.291,-0.376 0.305,-0.372 0.318,-0.366C0.33,-0.359 0.344,-0.348 0.36,-0.332C0.367,-0.324 0.376,-0.317 0.386,-0.311C0.395,-0.303 0.404,-0.3 0.413,-0.3C0.427,-0.3 0.438,-0.305 0.446,-0.315C0.454,-0.325 0.458,-0.335 0.458,-0.346C0.458,-0.356 0.454,-0.365 0.448,-0.375C0.442,-0.384 0.434,-0.393 0.424,-0.401C0.396,-0.423 0.368,-0.437 0.342,-0.445C0.316,-0.453 0.288,-0.457 0.26,-0.457C0.226,-0.457 0.196,-0.448 0.169,-0.43C0.141,-0.412 0.118,-0.389 0.1,-0.361C0.08,-0.333 0.066,-0.302 0.056,-0.269C0.045,-0.235 0.04,-0.203 0.04,-0.173C0.04,-0.143 0.045,-0.118 0.056,-0.097C0.066,-0.075 0.08,-0.056 0.098,-0.041C0.116,-0.026 0.139,-0.015 0.165,-0.008C0.191,-0 0.219,0.003 0.251,0.003C0.279,0.003 0.307,-0 0.336,-0.006C0.364,-0.012 0.391,-0.025 0.417,-0.046C0.434,-0.06 0.446,-0.073 0.454,-0.083C0.461,-0.092 0.465,-0.102 0.465,-0.113Z" style="fill-rule:nonzero;"/>
                                        </g>
                                        <g transform="matrix(280,0,0,280,324.52,0)">
                                            <path d="M0.465,-0.113C0.465,-0.125 0.459,-0.136 0.449,-0.147C0.443,-0.153 0.437,-0.157 0.431,-0.16C0.424,-0.162 0.418,-0.164 0.413,-0.164C0.397,-0.164 0.383,-0.154 0.371,-0.134C0.36,-0.116 0.344,-0.101 0.323,-0.088C0.301,-0.074 0.276,-0.068 0.247,-0.068C0.219,-0.068 0.197,-0.075 0.182,-0.09C0.166,-0.104 0.158,-0.132 0.158,-0.172C0.158,-0.19 0.16,-0.21 0.164,-0.234C0.168,-0.257 0.174,-0.279 0.184,-0.301C0.193,-0.321 0.205,-0.339 0.22,-0.354C0.234,-0.368 0.253,-0.376 0.275,-0.376C0.291,-0.376 0.305,-0.372 0.318,-0.366C0.33,-0.359 0.344,-0.348 0.36,-0.332C0.367,-0.324 0.376,-0.317 0.386,-0.311C0.395,-0.303 0.404,-0.3 0.413,-0.3C0.427,-0.3 0.438,-0.305 0.446,-0.315C0.454,-0.325 0.458,-0.335 0.458,-0.346C0.458,-0.356 0.454,-0.365 0.448,-0.375C0.442,-0.384 0.434,-0.393 0.424,-0.401C0.396,-0.423 0.368,-0.437 0.342,-0.445C0.316,-0.453 0.288,-0.457 0.26,-0.457C0.226,-0.457 0.196,-0.448 0.169,-0.43C0.141,-0.412 0.118,-0.389 0.1,-0.361C0.08,-0.333 0.066,-0.302 0.056,-0.269C0.045,-0.235 0.04,-0.203 0.04,-0.173C0.04,-0.143 0.045,-0.118 0.056,-0.097C0.066,-0.075 0.08,-0.056 0.098,-0.041C0.116,-0.026 0.139,-0.015 0.165,-0.008C0.191,-0 0.219,0.003 0.251,0.003C0.279,0.003 0.307,-0 0.336,-0.006C0.364,-0.012 0.391,-0.025 0.417,-0.046C0.434,-0.06 0.446,-0.073 0.454,-0.083C0.461,-0.092 0.465,-0.102 0.465,-0.113Z" style="fill-rule:nonzero;"/>
                                        </g>
                                        <g transform="matrix(280,0,0,280,465.92,0)">
                                            <path d="M0.481,-0.082C0.481,-0.09 0.476,-0.097 0.467,-0.103C0.457,-0.108 0.448,-0.111 0.438,-0.111C0.436,-0.111 0.432,-0.11 0.427,-0.109C0.421,-0.107 0.416,-0.104 0.41,-0.101C0.392,-0.089 0.372,-0.079 0.349,-0.071C0.325,-0.061 0.301,-0.057 0.277,-0.057C0.237,-0.057 0.208,-0.069 0.188,-0.093C0.168,-0.117 0.157,-0.146 0.155,-0.182C0.168,-0.175 0.183,-0.169 0.2,-0.165C0.216,-0.16 0.235,-0.158 0.257,-0.158C0.285,-0.158 0.312,-0.161 0.34,-0.169C0.366,-0.177 0.39,-0.187 0.411,-0.201C0.431,-0.213 0.448,-0.228 0.461,-0.245C0.473,-0.261 0.48,-0.279 0.48,-0.298C0.48,-0.326 0.471,-0.35 0.454,-0.371C0.436,-0.391 0.413,-0.407 0.386,-0.421C0.363,-0.431 0.339,-0.439 0.314,-0.445C0.288,-0.45 0.262,-0.453 0.237,-0.453C0.21,-0.453 0.185,-0.445 0.162,-0.429C0.138,-0.412 0.117,-0.391 0.099,-0.365C0.081,-0.339 0.066,-0.311 0.056,-0.279C0.045,-0.247 0.04,-0.216 0.04,-0.185C0.04,-0.161 0.044,-0.137 0.052,-0.114C0.06,-0.09 0.072,-0.069 0.09,-0.051C0.108,-0.033 0.131,-0.018 0.159,-0.007C0.187,0.004 0.221,0.01 0.262,0.01C0.284,0.01 0.308,0.008 0.334,0.005C0.359,0.001 0.382,-0.005 0.404,-0.013C0.426,-0.02 0.444,-0.029 0.459,-0.041C0.473,-0.053 0.481,-0.066 0.481,-0.082ZM0.385,-0.295C0.385,-0.285 0.381,-0.276 0.374,-0.268C0.366,-0.259 0.357,-0.251 0.345,-0.245C0.333,-0.239 0.319,-0.234 0.304,-0.23C0.288,-0.226 0.273,-0.224 0.257,-0.224C0.23,-0.224 0.209,-0.228 0.195,-0.237C0.18,-0.245 0.17,-0.256 0.165,-0.268C0.173,-0.298 0.187,-0.323 0.205,-0.343C0.223,-0.363 0.243,-0.374 0.267,-0.374C0.28,-0.374 0.294,-0.372 0.308,-0.369C0.322,-0.365 0.334,-0.36 0.346,-0.354C0.357,-0.347 0.366,-0.339 0.374,-0.329C0.381,-0.319 0.385,-0.308 0.385,-0.295Z" style="fill-rule:nonzero;"/>
                                        </g>
                                        <g transform="matrix(280,0,0,280,611.8,0)">
                                            <path d="M0.462,-0.103C0.462,-0.122 0.455,-0.139 0.442,-0.153C0.428,-0.167 0.412,-0.18 0.393,-0.19C0.372,-0.201 0.349,-0.212 0.325,-0.224C0.3,-0.235 0.276,-0.246 0.253,-0.258C0.227,-0.27 0.208,-0.281 0.198,-0.291C0.187,-0.299 0.182,-0.312 0.182,-0.328C0.182,-0.332 0.183,-0.336 0.186,-0.342C0.188,-0.347 0.193,-0.352 0.199,-0.357C0.205,-0.362 0.213,-0.367 0.223,-0.371C0.233,-0.374 0.245,-0.376 0.259,-0.376C0.275,-0.376 0.289,-0.373 0.301,-0.368C0.312,-0.362 0.321,-0.357 0.327,-0.352C0.336,-0.342 0.346,-0.334 0.358,-0.327C0.369,-0.319 0.382,-0.313 0.398,-0.311C0.413,-0.311 0.426,-0.315 0.436,-0.324C0.445,-0.332 0.45,-0.342 0.45,-0.353C0.45,-0.366 0.443,-0.378 0.431,-0.389C0.418,-0.4 0.405,-0.41 0.392,-0.418C0.375,-0.428 0.355,-0.436 0.332,-0.444C0.309,-0.451 0.286,-0.455 0.264,-0.455C0.224,-0.455 0.192,-0.45 0.167,-0.441C0.141,-0.432 0.122,-0.421 0.108,-0.408C0.093,-0.394 0.083,-0.379 0.078,-0.363C0.072,-0.347 0.069,-0.332 0.069,-0.318C0.069,-0.302 0.072,-0.288 0.078,-0.276C0.083,-0.264 0.09,-0.253 0.1,-0.243C0.109,-0.233 0.12,-0.224 0.132,-0.217C0.144,-0.209 0.157,-0.201 0.171,-0.195C0.18,-0.19 0.189,-0.186 0.199,-0.182C0.208,-0.178 0.217,-0.173 0.227,-0.169L0.265,-0.152C0.277,-0.146 0.288,-0.141 0.3,-0.135C0.316,-0.126 0.328,-0.118 0.335,-0.112C0.341,-0.105 0.345,-0.099 0.345,-0.094C0.345,-0.088 0.342,-0.082 0.336,-0.078C0.33,-0.073 0.323,-0.069 0.315,-0.066C0.306,-0.062 0.296,-0.06 0.286,-0.059C0.274,-0.057 0.264,-0.056 0.254,-0.056C0.245,-0.056 0.236,-0.057 0.226,-0.059C0.216,-0.061 0.207,-0.063 0.199,-0.067L0.176,-0.075C0.17,-0.078 0.166,-0.081 0.164,-0.084C0.154,-0.096 0.143,-0.105 0.132,-0.112C0.12,-0.118 0.106,-0.122 0.088,-0.122C0.071,-0.122 0.059,-0.117 0.052,-0.109C0.044,-0.1 0.04,-0.091 0.04,-0.083C0.04,-0.078 0.041,-0.072 0.045,-0.065C0.048,-0.058 0.051,-0.053 0.055,-0.05C0.064,-0.04 0.077,-0.031 0.094,-0.023C0.11,-0.015 0.127,-0.009 0.146,-0.003C0.164,0.002 0.182,0.006 0.2,0.009C0.218,0.012 0.235,0.014 0.249,0.014C0.268,0.014 0.29,0.012 0.315,0.009C0.339,0.005 0.362,-0.001 0.384,-0.011C0.406,-0.019 0.424,-0.031 0.44,-0.047C0.454,-0.061 0.462,-0.08 0.462,-0.103Z" style="fill-rule:nonzero;"/>
                                        </g>
                                        <g transform="matrix(280,0,0,280,752.36,0)">
                                            <path d="M0.462,-0.103C0.462,-0.122 0.455,-0.139 0.442,-0.153C0.428,-0.167 0.412,-0.18 0.393,-0.19C0.372,-0.201 0.349,-0.212 0.325,-0.224C0.3,-0.235 0.276,-0.246 0.253,-0.258C0.227,-0.27 0.208,-0.281 0.198,-0.291C0.187,-0.299 0.182,-0.312 0.182,-0.328C0.182,-0.332 0.183,-0.336 0.186,-0.342C0.188,-0.347 0.193,-0.352 0.199,-0.357C0.205,-0.362 0.213,-0.367 0.223,-0.371C0.233,-0.374 0.245,-0.376 0.259,-0.376C0.275,-0.376 0.289,-0.373 0.301,-0.368C0.312,-0.362 0.321,-0.357 0.327,-0.352C0.336,-0.342 0.346,-0.334 0.358,-0.327C0.369,-0.319 0.382,-0.313 0.398,-0.311C0.413,-0.311 0.426,-0.315 0.436,-0.324C0.445,-0.332 0.45,-0.342 0.45,-0.353C0.45,-0.366 0.443,-0.378 0.431,-0.389C0.418,-0.4 0.405,-0.41 0.392,-0.418C0.375,-0.428 0.355,-0.436 0.332,-0.444C0.309,-0.451 0.286,-0.455 0.264,-0.455C0.224,-0.455 0.192,-0.45 0.167,-0.441C0.141,-0.432 0.122,-0.421 0.108,-0.408C0.093,-0.394 0.083,-0.379 0.078,-0.363C0.072,-0.347 0.069,-0.332 0.069,-0.318C0.069,-0.302 0.072,-0.288 0.078,-0.276C0.083,-0.264 0.09,-0.253 0.1,-0.243C0.109,-0.233 0.12,-0.224 0.132,-0.217C0.144,-0.209 0.157,-0.201 0.171,-0.195C0.18,-0.19 0.189,-0.186 0.199,-0.182C0.208,-0.178 0.217,-0.173 0.227,-0.169L0.265,-0.152C0.277,-0.146 0.288,-0.141 0.3,-0.135C0.316,-0.126 0.328,-0.118 0.335,-0.112C0.341,-0.105 0.345,-0.099 0.345,-0.094C0.345,-0.088 0.342,-0.082 0.336,-0.078C0.33,-0.073 0.323,-0.069 0.315,-0.066C0.306,-0.062 0.296,-0.06 0.286,-0.059C0.274,-0.057 0.264,-0.056 0.254,-0.056C0.245,-0.056 0.236,-0.057 0.226,-0.059C0.216,-0.061 0.207,-0.063 0.199,-0.067L0.176,-0.075C0.17,-0.078 0.166,-0.081 0.164,-0.084C0.154,-0.096 0.143,-0.105 0.132,-0.112C0.12,-0.118 0.106,-0.122 0.088,-0.122C0.071,-0.122 0.059,-0.117 0.052,-0.109C0.044,-0.1 0.04,-0.091 0.04,-0.083C0.04,-0.078 0.041,-0.072 0.045,-0.065C0.048,-0.058 0.051,-0.053 0.055,-0.05C0.064,-0.04 0.077,-0.031 0.094,-0.023C0.11,-0.015 0.127,-0.009 0.146,-0.003C0.164,0.002 0.182,0.006 0.2,0.009C0.218,0.012 0.235,0.014 0.249,0.014C0.268,0.014 0.29,0.012 0.315,0.009C0.339,0.005 0.362,-0.001 0.384,-0.011C0.406,-0.019 0.424,-0.031 0.44,-0.047C0.454,-0.061 0.462,-0.08 0.462,-0.103Z" style="fill-rule:nonzero;"/>
                                        </g>
                                        <g transform="matrix(280,0,0,280,892.92,0)">
                                            <path d="M0.217,-0.585C0.217,-0.604 0.209,-0.62 0.193,-0.634C0.184,-0.64 0.175,-0.644 0.166,-0.648C0.156,-0.651 0.146,-0.653 0.135,-0.653C0.118,-0.653 0.103,-0.647 0.089,-0.637C0.076,-0.626 0.07,-0.613 0.07,-0.597C0.07,-0.577 0.079,-0.56 0.098,-0.547C0.114,-0.535 0.132,-0.529 0.154,-0.529C0.172,-0.529 0.187,-0.533 0.199,-0.543C0.211,-0.553 0.217,-0.567 0.217,-0.585ZM0.195,-0.397C0.195,-0.404 0.191,-0.411 0.185,-0.418C0.178,-0.424 0.171,-0.429 0.164,-0.433C0.152,-0.439 0.139,-0.443 0.127,-0.443C0.121,-0.443 0.114,-0.442 0.107,-0.44C0.099,-0.438 0.093,-0.434 0.089,-0.429C0.084,-0.423 0.081,-0.414 0.08,-0.403C0.078,-0.391 0.077,-0.376 0.077,-0.357L0.075,-0.155L0.075,-0.068C0.075,-0.06 0.076,-0.051 0.08,-0.043C0.083,-0.035 0.088,-0.027 0.096,-0.021C0.098,-0.019 0.103,-0.015 0.112,-0.009C0.121,-0.003 0.129,-0 0.137,-0C0.144,-0 0.152,-0.002 0.162,-0.007C0.172,-0.011 0.178,-0.018 0.182,-0.028C0.188,-0.041 0.192,-0.054 0.192,-0.066C0.191,-0.067 0.191,-0.068 0.191,-0.07C0.191,-0.071 0.19,-0.073 0.19,-0.075C0.189,-0.077 0.189,-0.079 0.189,-0.081C0.189,-0.083 0.188,-0.085 0.188,-0.088C0.185,-0.097 0.183,-0.107 0.183,-0.118L0.182,-0.153L0.182,-0.22C0.182,-0.234 0.182,-0.249 0.183,-0.265C0.183,-0.28 0.184,-0.291 0.184,-0.299L0.184,-0.311L0.186,-0.328L0.188,-0.346C0.188,-0.352 0.189,-0.357 0.19,-0.361C0.191,-0.369 0.192,-0.376 0.194,-0.383C0.194,-0.39 0.195,-0.395 0.195,-0.397Z" style="fill-rule:nonzero;"/>
                                        </g>
                                        <g transform="matrix(280,0,0,280,973.28,0)">
                                            <path d="M0.497,-0.246C0.497,-0.313 0.478,-0.366 0.442,-0.405C0.405,-0.444 0.352,-0.464 0.284,-0.464C0.262,-0.464 0.242,-0.46 0.222,-0.452C0.202,-0.444 0.185,-0.432 0.17,-0.418C0.17,-0.427 0.17,-0.439 0.171,-0.453C0.171,-0.467 0.172,-0.483 0.172,-0.501L0.174,-0.553L0.174,-0.605C0.174,-0.626 0.176,-0.641 0.18,-0.651C0.182,-0.657 0.184,-0.663 0.184,-0.667C0.184,-0.671 0.185,-0.675 0.185,-0.677C0.185,-0.686 0.178,-0.693 0.165,-0.699C0.153,-0.703 0.141,-0.706 0.129,-0.706C0.116,-0.706 0.1,-0.7 0.081,-0.689C0.072,-0.683 0.065,-0.678 0.059,-0.673C0.053,-0.667 0.05,-0.662 0.05,-0.656C0.05,-0.651 0.052,-0.643 0.057,-0.633C0.058,-0.625 0.059,-0.615 0.06,-0.603L0.064,-0.562C0.065,-0.542 0.066,-0.524 0.066,-0.506C0.066,-0.488 0.067,-0.475 0.067,-0.467C0.067,-0.461 0.066,-0.447 0.066,-0.425L0.064,-0.351L0.062,-0.269C0.061,-0.241 0.061,-0.22 0.061,-0.204C0.061,-0.193 0.061,-0.179 0.062,-0.163C0.062,-0.145 0.062,-0.128 0.063,-0.111L0.066,-0.046C0.066,-0.034 0.068,-0.024 0.072,-0.015C0.074,-0.006 0.08,0.001 0.088,0.007C0.099,0.016 0.111,0.021 0.125,0.021C0.134,0.021 0.142,0.019 0.148,0.017C0.154,0.015 0.16,0.01 0.167,0.002C0.171,-0.004 0.174,-0.012 0.176,-0.022C0.177,-0.031 0.178,-0.039 0.178,-0.046C0.19,-0.03 0.208,-0.018 0.233,-0.011C0.257,-0.003 0.282,-0 0.307,-0C0.343,-0 0.373,-0.008 0.398,-0.025C0.422,-0.041 0.441,-0.061 0.456,-0.086C0.47,-0.11 0.481,-0.137 0.488,-0.166C0.494,-0.194 0.497,-0.221 0.497,-0.246ZM0.383,-0.251C0.383,-0.189 0.373,-0.144 0.354,-0.116C0.335,-0.087 0.309,-0.073 0.277,-0.073C0.242,-0.073 0.216,-0.085 0.198,-0.109C0.18,-0.133 0.172,-0.167 0.172,-0.211C0.172,-0.227 0.174,-0.246 0.178,-0.266C0.182,-0.286 0.19,-0.304 0.2,-0.321C0.21,-0.337 0.223,-0.351 0.239,-0.363C0.255,-0.374 0.274,-0.38 0.298,-0.38C0.323,-0.38 0.344,-0.37 0.36,-0.35C0.375,-0.33 0.383,-0.297 0.383,-0.251Z" style="fill-rule:nonzero;"/>
                                        </g>
                                        <g transform="matrix(280,0,0,280,1123.64,0)">
                                            <path d="M0.203,-0.046C0.203,-0.048 0.202,-0.051 0.202,-0.055C0.201,-0.058 0.199,-0.062 0.197,-0.068C0.19,-0.085 0.184,-0.11 0.18,-0.142C0.176,-0.174 0.174,-0.213 0.174,-0.259L0.174,-0.491C0.174,-0.505 0.175,-0.519 0.177,-0.531C0.178,-0.542 0.18,-0.552 0.182,-0.561C0.183,-0.57 0.185,-0.579 0.189,-0.588L0.198,-0.614C0.201,-0.626 0.203,-0.635 0.203,-0.641C0.203,-0.657 0.195,-0.67 0.181,-0.68C0.165,-0.69 0.149,-0.696 0.133,-0.696C0.126,-0.696 0.117,-0.694 0.106,-0.691C0.095,-0.687 0.083,-0.68 0.07,-0.672C0.07,-0.659 0.071,-0.646 0.073,-0.633C0.075,-0.619 0.076,-0.608 0.076,-0.601L0.076,-0.482L0.074,-0.382L0.074,-0.283C0.073,-0.252 0.073,-0.226 0.073,-0.205L0.073,-0.17C0.073,-0.113 0.08,-0.07 0.094,-0.042C0.108,-0.013 0.126,0.001 0.15,0.001C0.164,0.001 0.176,-0.003 0.187,-0.012C0.197,-0.02 0.203,-0.032 0.203,-0.046Z" style="fill-rule:nonzero;"/>
                                        </g>
                                        <g transform="matrix(280,0,0,280,1200.08,0)">
                                            <path d="M0.481,-0.082C0.481,-0.09 0.476,-0.097 0.467,-0.103C0.457,-0.108 0.448,-0.111 0.438,-0.111C0.436,-0.111 0.432,-0.11 0.427,-0.109C0.421,-0.107 0.416,-0.104 0.41,-0.101C0.392,-0.089 0.372,-0.079 0.349,-0.071C0.325,-0.061 0.301,-0.057 0.277,-0.057C0.237,-0.057 0.208,-0.069 0.188,-0.093C0.168,-0.117 0.157,-0.146 0.155,-0.182C0.168,-0.175 0.183,-0.169 0.2,-0.165C0.216,-0.16 0.235,-0.158 0.257,-0.158C0.285,-0.158 0.312,-0.161 0.34,-0.169C0.366,-0.177 0.39,-0.187 0.411,-0.201C0.431,-0.213 0.448,-0.228 0.461,-0.245C0.473,-0.261 0.48,-0.279 0.48,-0.298C0.48,-0.326 0.471,-0.35 0.454,-0.371C0.436,-0.391 0.413,-0.407 0.386,-0.421C0.363,-0.431 0.339,-0.439 0.314,-0.445C0.288,-0.45 0.262,-0.453 0.237,-0.453C0.21,-0.453 0.185,-0.445 0.162,-0.429C0.138,-0.412 0.117,-0.391 0.099,-0.365C0.081,-0.339 0.066,-0.311 0.056,-0.279C0.045,-0.247 0.04,-0.216 0.04,-0.185C0.04,-0.161 0.044,-0.137 0.052,-0.114C0.06,-0.09 0.072,-0.069 0.09,-0.051C0.108,-0.033 0.131,-0.018 0.159,-0.007C0.187,0.004 0.221,0.01 0.262,0.01C0.284,0.01 0.308,0.008 0.334,0.005C0.359,0.001 0.382,-0.005 0.404,-0.013C0.426,-0.02 0.444,-0.029 0.459,-0.041C0.473,-0.053 0.481,-0.066 0.481,-0.082ZM0.385,-0.295C0.385,-0.285 0.381,-0.276 0.374,-0.268C0.366,-0.259 0.357,-0.251 0.345,-0.245C0.333,-0.239 0.319,-0.234 0.304,-0.23C0.288,-0.226 0.273,-0.224 0.257,-0.224C0.23,-0.224 0.209,-0.228 0.195,-0.237C0.18,-0.245 0.17,-0.256 0.165,-0.268C0.173,-0.298 0.187,-0.323 0.205,-0.343C0.223,-0.363 0.243,-0.374 0.267,-0.374C0.28,-0.374 0.294,-0.372 0.308,-0.369C0.322,-0.365 0.334,-0.36 0.346,-0.354C0.357,-0.347 0.366,-0.339 0.374,-0.329C0.381,-0.319 0.385,-0.308 0.385,-0.295Z" style="fill-rule:nonzero;"/>
                                        </g>
                                    </g>
                                </g>
                            </g>
                        </g>
                    </g>
                </g>
            </g>
        </g>
    </g>
</svg>
