<?xml version="1.0" encoding="UTF-8"?>
<svg width="2001px" height="488px" viewBox="0 0 2001 488" version="1.1" xmlns="http://www.w3.org/2000/svg" xmlns:xlink="http://www.w3.org/1999/xlink">
    <!-- Generator: Sketch 59.1 (86144) - https://sketch.com -->
    <title>logo</title>
    <desc>Created with Sketch.</desc>
    <g id="Page-1" stroke="none" stroke-width="1" fill="none" fill-rule="evenodd">
        <g id="logo" transform="translate(0.000000, -86.000000)">
            <path d="M350.687358,498.219607 L413.720132,522 L393.795618,478.852205 L393.790382,478.844348 C471.174252,446.795816 524,382.675181 524,308.811918 C524,202.894885 415.406032,117 281.502618,117 C147.593968,117 39,202.894885 39,308.811918 C39,372.455898 78.2181242,428.871476 138.580684,463.769465 L138.580684,184.488651 L350.687358,184.488651 L350.687358,498.219607 Z M281.50393,86 C436.94267,86 563,185.644445 563,308.518129 C563,385.889541 513.004701,454.039468 437.175876,493.911917 L471.617083,574 L338.757457,527.599158 L241.447424,560.340674 L241.447424,269.274418 L319.521844,221.988104 L171.029517,221.988104 L171.029517,513.227262 C70.4834149,479.272807 0,400.392424 0,308.518129 C0,185.644445 126.05995,86 281.50393,86 L281.50393,86 Z" id="Fill-29" fill="#729442"></path>
            <g id="Group" transform="translate(666.000000, 0.000000)" fill="#000000" font-family="HannotateSC-W7, Hannotate SC" font-size="280" font-weight="bold">
                <text id="Duffield">
                    <tspan x="0" y="565">Duffield</tspan>
                </text>
                <text id="Accessible">
                    <tspan x="0" y="297">Accessible</tspan>
                </text>
            </g>
        </g>
    </g>
</svg>