<?xml version="1.0" encoding="UTF-8"?>
<svg width="2043px" height="473px" viewBox="0 0 2043 473" version="1.1" xmlns="http://www.w3.org/2000/svg" xmlns:xlink="http://www.w3.org/1999/xlink">
    <!-- Generator: Sketch 59.1 (86144) - https://sketch.com -->
    <title>logo</title>
    <desc>Created with Sketch.</desc>
    <g id="Page-1" stroke="none" stroke-width="1" fill="none" fill-rule="evenodd">
        <g id="logo" transform="translate(0.000000, -99.000000)">
            <g id="bubble" transform="translate(0.000000, 100.000000)" fill="#C87702" fill-rule="nonzero">
                <path d="M492.342201,0 L64.6577993,0 C28.9613059,0 0,28.9866071 0,64.7142857 L0,321.549107 C0,357.276786 28.9613059,386.263393 64.6577993,386.263393 L109.783555,386.263393 L149.521161,439.517857 C152.215236,442.888393 160.970979,453 174.441354,453 C180.503023,453 189.932285,450.303571 198.688029,438.84375 L238.425635,386.263393 L492.342201,386.263393 C528.038694,386.263393 557,357.276786 557,321.549107 L557,65.3883929 C557,29.6607143 528.038694,0 492.342201,0 Z M532.079807,321.223214 C532.079807,343.46875 513.8948,360.995536 492.342201,360.995536 L231.690447,360.995536 C227.649335,360.995536 224.281741,363.017857 221.587666,365.714286 L178.482467,423.6875 C175.788392,427.058036 174.441354,427.732143 174.441354,427.732143 C173.767836,427.732143 171.073761,425.709821 169.726723,423.6875 L126.621524,365.714286 C124.600967,362.34375 120.559855,360.995536 116.518742,360.995536 L65.331318,360.995536 C43.1051995,360.995536 25.5937122,342.794643 25.5937122,321.223214 L25.5937122,64.3883929 C25.5937122,42.1428571 43.7787183,24.6160714 65.331318,24.6160714 L493.015719,24.6160714 C515.241838,24.6160714 532.753325,42.8169643 532.753325,64.3883929 L532.753325,321.223214 L532.079807,321.223214 Z M453.951632,195.165179 C453.951632,201.90625 448.563482,207.299107 441.828295,207.299107 L113.824667,207.299107 C107.08948,207.299107 101.70133,201.90625 101.70133,195.165179 C101.70133,188.424107 107.08948,183.03125 113.824667,183.03125 L441.828295,183.03125 C448.563482,182.357143 453.951632,187.75 453.951632,195.165179 Z M453.951632,270.991071 C453.951632,277.732143 448.563482,283.125 441.828295,283.125 L113.824667,283.125 C107.08948,283.125 101.70133,277.732143 101.70133,270.991071 C101.70133,264.25 107.08948,258.857143 113.824667,258.857143 L441.828295,258.857143 C448.563482,258.183036 453.951632,263.575893 453.951632,270.991071 Z M101.027811,122.013393 C101.027811,115.272321 106.415961,109.879464 113.151149,109.879464 L310.49214,109.879464 C317.227328,109.879464 322.615478,115.272321 322.615478,122.013393 C322.615478,128.754464 317.227328,134.147321 310.49214,134.147321 L113.824667,134.147321 C107.08948,134.821429 101.027811,128.754464 101.027811,122.013393 Z" id="Shape"></path>
            </g>
            <g id="door" transform="translate(348.000000, 182.000000)">
                <path d="M254,24 L254,347 L71,347 L71,24 L254,24 Z" id="Fill-99" fill="#FFFFFF"></path>
                <path d="M136.499024,198.287592 C139.105488,198.287592 142.457192,192.690123 142.457192,184.996207 C142.457192,177.292197 139.111931,171.712555 136.499024,171.712555 C133.893733,171.712555 130.548988,177.294196 130.548988,184.996207 C130.548988,192.68812 133.900173,198.287592 136.499024,198.287592 Z M12.4122721,7.42604389 L12.4099909,7.42623527 L159.279361,-4.92931714 C164.572774,-5.37495836 169.769384,-3.70069334 173.733814,-0.254710547 C177.733553,3.23199323 180,8.14328736 180,13.3739856 L180,356.631962 C180,362.127275 177.460323,367.30022 173.096621,370.776379 C168.791297,374.229051 163.142039,375.657702 157.637915,374.718338 L10.7638461,349.839645 C1.66944202,348.292109 -5,340.72664 -5,331.739722 L-5,25.7237639 C-5,16.1365975 2.60025522,8.24696698 12.4122721,7.42604389 Z" id="Fill-3" stroke="#FFFFFF" stroke-width="10" fill="#729442"></path>
                <path d="M237.153237,37.8296831 L180,37.8296831 L180,7 L253.089462,7 C257.242454,7 261.304468,8.60877517 264.245085,11.4297606 C267.269923,14.3035781 269,18.2960661 269,22.4225715 L269,132 L237.153237,132 L237.153237,37.8296831 Z" id="Fill-6" stroke="#FFFFFF" stroke-width="10" fill="#729442"></path>
                <path d="M237.153237,333.084061 L237.153237,223 L269,223 L269,348.536532 C269,352.670365 267.271002,356.67676 264.280035,359.522216 C261.324435,362.385231 257.257066,364 253.089462,364 L180,364 L180,333.084061 L237.153237,333.084061 Z" id="Fill-7" stroke="#FFFFFF" stroke-width="10" fill="#729442"></path>
                <rect id="Rectangle" fill="#729442" x="242" y="31" width="22" height="308"></rect>
            </g>
            <text id="Duffield" font-family="HannotateSC-W7, Hannotate SC" font-size="280" font-weight="bold" fill="#000000">
                <tspan x="708" y="565">Duffield</tspan>
            </text>
            <text id="Accessible" font-family="HannotateSC-W7, Hannotate SC" font-size="280" font-weight="bold" fill="#000000">
                <tspan x="708" y="297">Accessible</tspan>
            </text>
        </g>
    </g>
</svg>